<svg id="Layer_1" data-name="Layer 1" xmlns="http://www.w3.org/2000/svg" viewBox="0 0 406 798.08"><defs><style>.cls-1{fill:#363636;}</style></defs><title>JUNE</title><path class="cls-1" d="M81.12,237.1c-6.35-16.13-12.64-32.18-19-48.19a3.2,3.2,0,0,0-2-1.84c-5.86-.69-9.44-4.36-12.12-9.12a23.3,23.3,0,0,1-3-7c-1.34-7.45-5.55-13.08-10.63-18.28-1.59-1.62-3.13-3.3-4.61-5a3.89,3.89,0,0,1,.06-5.65c1.65-1.83,3.42-1.64,5.24-.07,3.76,3.23,7.57,6.39,11.63,9.81-3-5.9-5.72-11.48-8.56-17a4.75,4.75,0,0,1,.63-5.78c1.68-2,3-2.12,4.75-.22A39.43,39.43,0,0,1,47,133.27c2.7,4,5.34,8,8.35,11.88-1-3.38-2.06-6.74-3-10.12-1.12-3.83-2.26-7.66-3.27-11.52-.59-2.27.52-3.68,3.08-4.54,2.13-.71,2.77.72,3.38,2.19,2.89,7,5.75,13.92,8.64,20.88a6,6,0,0,0,1.59,2.34c-.45-3.66-.91-7.31-1.32-11-.35-3.06-.69-6.13-1-9.2a3.81,3.81,0,0,1,.29-2.38c.77-1.06,1.79-2.42,2.88-2.6a3.8,3.8,0,0,1,3.09,1.87,71.87,71.87,0,0,1,2.69,8.82c2.36,8.83,4.64,17.69,7,26.51a9.29,9.29,0,0,0,1.69,2.47,14.18,14.18,0,0,0,2.08-2.33c1.18-2.15,2-4.55,3.32-6.56a31.2,31.2,0,0,1,4.9-5.38c2.39-2.18,4.43-.15,6.34,1s.69,2.74.19,4.13c-2.22,6.15-4.82,12.19-6.61,18.46s-4.27,11.47-11.54,12.66c7,14.39,13.79,28.47,20.72,42.8,13.45-10.69,26.69-21,36.75-35.35a7.57,7.57,0,0,1,.51,2.06c-1.27,12.61,2.81,23.72,9.47,34.13a4.17,4.17,0,0,1,.74,3.1c-4.67,12.68-9.46,25.31-14.27,37.94-.81,2.11-1.79,4.17-2.78,6.21-1.78,3.69-3.65,3.9-5.75.42-4.65-7.7-9.51-15.3-13.59-23.3-9.58-18.75-18.73-37.72-28.08-56.59-2-4-4-7.88-6.19-12,1.62-.47,3-.84,4.34-1.28,3.75-1.23,6-3.84,7.21-7.56,2.51-7.49,5.27-14.89,7.83-22.36.27-.77.21-2.35-.18-2.53-1.26-.58-3.09-1.35-4.08-.84-1.67.87-3,2.57-4.23,4.1a11.76,11.76,0,0,0-2,3.57,13.51,13.51,0,0,1-8.89,9c-2.87,1-5,4.21-7.41,6.47a21.51,21.51,0,0,0-1.79,2.2c-.55-3.56,2.47-6.77,10.67-11.92-.77-2.35-1.64-4.72-2.3-7.16-2.28-8.39-4.47-16.81-6.71-25.21a18.5,18.5,0,0,0-1.24-3.88c-.42-.81-1.39-1.34-2.12-2-.44.93-1.25,1.86-1.24,2.79a59.92,59.92,0,0,0,.63,7.31c.74,5.92,1.55,11.83,2.36,17.89l3.29-.64.25.76-24.3,9.75-.28-.41,1.92-1.93c-5.06-4.36-10.1-8.76-15.25-13-.57-.47-1.82-.11-2.75-.14,0,1.06-.46,2.47.05,3.12,2.08,2.64,4.51,5,6.7,7.53,3.4,3.95,6.27,8.16,7.47,13.4s3.09,10.11,6.82,14.08c2.36,2.51,5,4.33,8.76,4.34a3.75,3.75,0,0,1,2.58,2.18c5.22,13.15,10.23,26.39,15.45,39.55,9.23,23.28,18.32,46.62,28,69.71,3.17,7.56,7.7,14.62,12.16,21.55,4,6.26,11.91,8.81,18.41,1.77a36.24,36.24,0,0,0,4.52-6.12q10.09-17.13,20-34.4a3.14,3.14,0,0,0-.05-2.44,48.4,48.4,0,0,1-2.86-27c.92-5.77,2.41-11.44,3.71-17.48-5.72-.87-9.27-5.56-13.68-9a9.27,9.27,0,0,1-2.14-2.79c-7.25-12.67-10.14-26.06-6.92-40.56,2.62-11.78-.17-22.45-7-32.25-10.8-15.53-13.1-32.9-11-51.24,1-8.68,2.37-17.26,5.53-25.44,3.49-9,8.74-16.8,17.21-21.84a23.06,23.06,0,0,1,7.89-2.64,5.87,5.87,0,0,0,3.91-1.82c4.18-4.67,9.79-6.91,15.65-8.31,10.25-2.46,20.52-3.08,30.93-.29,13.68,3.67,23.1,12.22,29.39,24.52a77.24,77.24,0,0,1,8.68,36.46c-.22,18.26-.76,36.52-1.06,54.78-.19,11.54-.18,23.08-.31,34.62a3.76,3.76,0,0,0,2.49,4,18.06,18.06,0,0,1,9.36,10.57c2.89,8.3,5.44,16.73,7.83,25.18,2.58,9.08,4.75,18.26,7.24,27.36a16.17,16.17,0,0,0,2.62,5.29c5.57,7.4,11.26,14.71,17,22a3.46,3.46,0,0,0,2.21.93,15.69,15.69,0,0,0,3-.24c5.25-.5,5.25-.5,6.39,5.12l-6.9-.28-.11.55,7.27,4.34-2.57,5.21-6.6-4.6c.34,3.85.56,7.39,1,10.89.1.71,1.14,1.32,1.82,1.89,11.39,9.73,19.59,21.53,22.27,36.45,1,5.65.58,11.56.85,17.35a14.82,14.82,0,0,0,.51,4.23c4.47,12.77,9,25.49,13.56,38.24a9.29,9.29,0,0,1-2.07,10.1c-3.76,3.95-7.49,7.94-11.49,11.65a12,12,0,0,0-3.89,7.71c-.59,4.4-1.41,8.77-2.25,13.13-.92,4.76-3,6.66-7.63,7.7a8,8,0,0,0-4.07,2.24,8.9,8.9,0,0,1-8.57,2.95,22.32,22.32,0,0,1-4.05-.48c-6.95-2.32-11.31,1.8-15.48,6.22A4,4,0,0,0,269,466q7.54,52.33,15.2,104.65T299.37,675c.54,3.67,1.8,7.42,1.44,11-.66,6.65,1.18,12.91,1.94,19.32.71,6,1.88,12,2.87,18,.1.6.21,1.51.61,1.72,3.31,1.7,3.55,5.08,4.5,8,.66,2.09,1.07,4.22,3.59,5,.45.14.81,1.26.79,1.92a13.23,13.23,0,0,1-.66,2.92c-1.22,4.61,1.8,8.91,6.59,9,.81,0,2.1-1.32,2.38-2.27a60.15,60.15,0,0,0,1.3-7.27l3.86,1.24c-.52,2.14-.91,4.08-1.47,6-.68,2.28.06,3.76,2.09,5,5.75,3.47,6.67,3.11,7.9-3.42.25-1.33.48-2.66.87-4.8,6.9,2.34,13.57,4.51,20.14,7,.89.33,1.72,2.14,1.73,3.28.07,4.53-.24,9.07-.33,13.61-.06,2.81-.08,5.63.08,8.43s-1,3.5-3.53,3.48c-11.81-.09-23.63,0-35.44-.08-11.54-.06-23.07-.19-34.6-.33-2.93,0-4-1.16-4.29-4.77-.57-7-1-13.94-1.48-20.91-.2-3-1-6.16-.37-9,2.05-8.51-1.18-16.18-3-24.1-2.5-10.77-4.94-21.55-7.49-32.67l-15,.72q-23.1-109.17-46.09-217.77l-.66-.05L153.69,701.09l-18.28-3.57c-1.56,6.75-3.08,13.26-4.58,19.77-1.65,7.16-3.33,14.3-4.88,21.48-.21,1,.28,2.15.37,3.23a57.37,57.37,0,0,1,.47,7c-.41,9.61-1,19.22-1.46,28.82-.21,3.95-.6,4.41-4.51,4.42q-28.33,0-56.67,0c-4.36,0-8.72,0-13.08,0-2.27.05-3.15-1.11-3.14-3.15,0-7.54,0-15.08.3-22.61a4.42,4.42,0,0,1,2.13-3.3c4.32-1.81,8.79-3.23,13.51-4.9.82,3.09,1.45,5.7,2.22,8.27.91,3,1.79,3.43,4.83,2.66,5.47-1.39,6.06-2.3,5.11-7.8-.34-2-.67-3.92-1-6.16l3.34-1.08c.92,3.24,1.74,6.28,2.65,9.29,1.17,3.81,2.61,4.42,6.28,2.79,5.19-2.31,5.6-3.11,4.56-8.79-.19-1-.36-2-.53-2.95-.76-4.36-.74-4.32,3.06-6.76a4.44,4.44,0,0,0,1.55-2.08c.7-1.86,1.19-3.8,1.82-5.69.29-.86.48-2.06,1.11-2.43,4.09-2.44,3.55-6.69,4.16-10.4,1.46-8.85,2.7-17.74,4-26.62,1.63-11,3.2-22.06,4.89-33.08,1.5-9.86,3.13-19.71,4.71-29.56q2.77-17.33,5.55-34.65c1.8-11.38,3.57-22.76,5.38-34.14s3.66-22.74,5.48-34.11c1.8-11.2,3.56-22.39,5.35-33.59q2.79-17.46,5.59-34.92,2.64-16.53,5.27-33.05Q152,405.76,154.87,388a20.65,20.65,0,0,0,.1-2.36,52.27,52.27,0,0,1-23.27,3.39c-21.68-1.87-39-11-50.49-30.17-10-16.77-15.43-34.83-14.8-54.42a113.4,113.4,0,0,1,11-45.16c.43-.9.85-1.81,1.26-2.71,0-.06-.06-.16-.26-.61-14.59,12.15-22.73,27.67-25.13,46.18s.79,35.77,11.25,51.58l-.76.56a6.8,6.8,0,0,1-2-1c-4.87-5-9-10.43-11.37-17.09-12.05-34.57-3.53-71.8,26.73-96.24C78.23,239.1,79.44,238.31,81.12,237.1ZM252.47,673.63,257,673q18.4-2.81,36.81-5.6c2-.3,2.66-1,2.32-3.21-1.92-12.26-3.64-24.56-5.44-36.85q-5.22-35.77-10.47-71.55-5.72-39.13-11.44-78.28c-.57-3.91-1.12-7.82-1.74-12.23-2.3,1.92-4.23,3.54-6.18,5.14-4.5,3.68-9.25,6.93-15.37,6.74-4.57-.14-8.46-1.66-10.46-6.37-3.42-8-7.17-15.88-10.47-23.95-5.39-13.19-10.57-26.46-15.75-39.73-2.89-7.41-.91-13.8,4.8-19a171.14,171.14,0,0,1,14-11.69c7.11-5.21,14.54-10,21.76-15a3.82,3.82,0,0,0,1.58-2.75,24.21,24.21,0,0,0-1.43-6.33c-.35-1-1.5-1.65-2.29-2.45l-.95.79,1.9,3.89c-20.2,3.22-40.2,2.09-60.45.25.06,6.21.12,12.08.17,18l-1.23,0c-1.24-6-.62-12.29-1-18.35-6.6-2-13.71-1.18-20.53-4.33l2.61-1.76c-4,.22-5.26,1.69-5.89,5.95-1.26,8.43-2.6,16.85-3.94,25.27-1.82,11.46-3.68,22.92-5.51,34.38s-3.6,22.75-5.41,34.12l-5.49,34.39-5.37,33.85q-2.74,17.21-5.51,34.39-2.68,16.92-5.35,33.86-2.76,17.33-5.55,34.65c-1.6,9.94-3.24,19.87-4.78,29.81-1.1,7.06-2.07,14.13-3.11,21.29L156.62,681c.28-.88.4-1.21.49-1.55q6.39-27.12,12.79-54.24c6.44-27.25,13-54.49,19.33-81.75,4.1-17.55,8-35.16,12-52.73,1.21-5.3,2.07-10.76,4-15.79,1.43-3.68.52-6.69-.4-10-.34-1.23-.78-2.42-1.19-3.63q-7-20.61-14.09-41.23c-1.78-5.2-3.63-10.37-5.6-16,3.38.9,6.3,1.88,9.3,2.42,2.27.42,3.08,1.58,3.52,3.71q6.27,30.08,12.69,60.12L246,643.32C248.13,653.34,250.28,663.34,252.47,673.63ZM178.72,223.22l.69-.67a39.8,39.8,0,0,0,4.36,1.22c9.17,1.53,15.54-9.16,14.11-15.92-1.58-7.44-3.2-14.88-4.52-22.37-1-5.67-1.11-11.44.82-17,3-8.74,6.33-17.38,9.41-26.11,2.88-8.14,5.49-16.32,4.18-25.22-1.18-8-4.93-13.74-12.68-16.53-3.07-1.1-6.16-2.14-9.29-3.05-13.41-3.93-27.32-6.8-37.37-17.93a32.53,32.53,0,0,1-11.24,21,3.83,3.83,0,0,0-1,2.59,108.63,108.63,0,0,0,.27,11.7c.71,7.14,1.5,14.42,6,20.36,7.67,10.12,18.68,14.37,30.71,16.29,8.21,1.31,16-1.4,23.76-3.66.8-.23,1.61-.43,2.76-.74-2.41,6.57-4.62,12.7-7,18.78a2.55,2.55,0,0,1-2,1.14c-3.58-.26-7.14-.73-10.94-1.14,0,.92.1,2,.1,3.05,0,8.4,1.53,16.75.33,25.2-1.41,10-2.32,20-3.5,30-.4,3.43-.93,6.85-1.48,10.84l-2.83-3.75,1.34-.67-4.89-3.56.31-.61,5.25-.25,0-.71c-1.5-.06-3-.14-4.5-.17-2.66-.06-3.82-1.67-3.07-4.3.65-2.26,1.41-4.5,1.93-6.79,1.23-5.42,2.35-10.87,3.65-17l-13.44,6.31a10.88,10.88,0,0,1-.37-1.43c-.89-9.57-1.9-19.12-2.61-28.69-.61-8.29-1.9-16.4-4.95-24.15a14.79,14.79,0,0,0-2.05-2.89,1.89,1.89,0,0,0-.13,1.71c3.42,8.51,4.91,17.37,5.48,26.51.59,9.4,1.75,18.76,2.57,28.15a12,12,0,0,1-.41,4.13c-.74,2.77-2.79,5.68-2.35,8.19a26.47,26.47,0,0,0,9.64,16.21l1.89-6.07,3,4.58-2.7.7.11.38,4.51.72-.14.95-5.36.5.08.74,7.14-.13,0,1.09-7.47,1.09c4.14,1.44,9.78-2.06,12,4.35l-14.19,1.07.06.72c4.84,0,9.68-.13,14.52-.09a13,13,0,0,1,3,.74l-.17.83-18,.09-.27.83a6.25,6.25,0,0,0,2,.71c5.36-.07,10.72-.28,16.07-.31a14.75,14.75,0,0,1,3.43.78l-.19.83-19.84.38c-1.2,0-2.55-.16-1.8,1.87,2.82-.11,5.61-.25,8.41-.3s5.81,0,8.72,0c2.65-.06,5.36-.81,7.84.8-8.43,1.48-17.06.16-25.44,1.88a19,19,0,0,0,5.37.56c6.52-.33,13-.79,19.56-1.08a12.44,12.44,0,0,1,3.21.71l-.17.78-27.74,1.52c10.37.54,20.79-.39,31.13.62v1.15l-31.72.29c10.33.7,20.65.77,31,.91a28.07,28.07,0,0,1,3.91.61l-.14,1.38c-3.48-.14-6.95-.34-10.43-.4q-10.9-.21-21.81-.25c-1.13,0-2.87-.49-2.81,1.73a4.32,4.32,0,0,0,.88.22c11.72.25,23.44.47,35.15.74a17.8,17.8,0,0,1,2.95.55l-.19,1.48L160.67,261l0,.85c4.78.4,9.55.93,14.33,1.18,8.17.41,16.35.64,24.52,1a18.11,18.11,0,0,1,2.79.55l-.12.89-40.63-1.6,0,.73q20.12.9,40.23,1.85a16.22,16.22,0,0,1,3,.67l-.17.74c-14.59,1.23-29.07-1.28-43.64-1.64a3,3,0,0,0,1.86.86c14.09,1.29,28.13,3.53,42.36,2.33.65-.06,1.35.52,2,.81-15.42,2.28-30.5-.49-45.67-1a6.16,6.16,0,0,0,2.81.91c4.52.44,9,.95,13.57,1.24,10.06.64,20.13,1.16,30.19,1.79a7.35,7.35,0,0,1,2.26,1l-.29,1.11-48-3.57-.24.9a14.78,14.78,0,0,0,3.2.95c15,1,30.09,1.94,45.13,2.91a8.66,8.66,0,0,1,1.69.46l-.16,1c-16.2.5-32.26-2.4-48.49-2.29a10.86,10.86,0,0,0,4.34,1.29c14.59,1,29.18,2,43.77,3a7.76,7.76,0,0,1,2.07.8l-.24,1.18-48.17-3.52-.14.79a13.12,13.12,0,0,0,2.12.52c15.21,1.24,30.42,2.44,45.63,3.69a8,8,0,0,1,2.08.74l-.23,1.16L167,281.47c.22.67.5.88.81.94,15.15,2.56,30.34,4.68,45.77,4.35a7.5,7.5,0,0,1,2.21.65l-.24.69c-15.77,1.06-31.29-1.52-46.9-3.56a2.3,2.3,0,0,0,1.37,1.19c5.93.83,11.85,1.77,17.8,2.35,9.13.88,18.28,1.49,27.42,2.28a7.32,7.32,0,0,1,2,.8l-.23.88c-15.47-.36-30.79-2.62-46.22-4.16a3.44,3.44,0,0,0,2,1.19c6.47.87,12.94,1.8,19.43,2.48,8.13.85,16.28,1.46,24.41,2.24.65.06,1.26.65,1.88,1l-.32,1-45.17-4.75a1.33,1.33,0,0,0,1,.91c6.36,1,12.7,2.16,19.1,2.87,8.12.9,16.28,1.41,24.42,2.14a6.9,6.9,0,0,1,2,.86l-.31,1.28-44.66-5a180.2,180.2,0,0,0,20.19,3.51c7.93,1,15.89,1.7,23.83,2.58a6.41,6.41,0,0,1,1.79.79l-.29,1.11-44.92-5.3a4.46,4.46,0,0,0,2.31,1.22c7.59,1.25,15.18,2.61,22.8,3.62,6.3.84,12.66,1.24,19,1.89a6.34,6.34,0,0,1,1.85.87l-.28.79c-15.3-1.65-30.76-1.94-46-5.59a3,3,0,0,0,1.81,1.61c6.34,1.06,12.68,2.24,19.07,3,7.94.9,15.93,1.39,23.89,2.11a7,7,0,0,1,1.89.8l-.27.85A322.72,322.72,0,0,1,175,302.62l-.15,1.06,47.06,6.51-.13,1c-15.93-.61-31.58-4.08-47.44-5.51,15.58,3.88,31.56,5,47.39,7.26-8,.6-15.91-.49-23.79-1.45s-15.69-2.2-23.53-3.32l-.12.87,46.45,6.37a2.66,2.66,0,0,1-2.1,1.06c-1.54-.06-3.07-.3-4.6-.51l-32.62-4.43c-2.47-.33-4.95-.7-7.42-1.05l-.13,1.05c14.82,3.89,30.12,4.65,45.34,5.93l-.16,1.31a256.45,256.45,0,0,1-45.94-5.5c.32,1.13.52,1.83.73,2.52-17.74,6.53-19.88,23.37-13.68,37.39a52.62,52.62,0,0,0-1-8.12c-2.15-11.43,1.88-20.89,11.35-25.93a8.88,8.88,0,0,1,5.09-.79c7.45,1,14.84,2.53,22.3,3.4,9.74,1.14,19.53,1.9,29.3,2.69,4.56.36,9.14.39,13.71.57l.11-1-23.16-2-.1-.7a13.37,13.37,0,0,1,3.4-.63c4.8.35,9.59.89,14.38,1.31a28.54,28.54,0,0,0,3.2-.07l0-1.13-17.62-1.54.06-.93c5.1-1.13,10.26.76,15.47.05a4.17,4.17,0,0,0-2.46-1.15c-3.86-.22-7.72-.33-11.58-.48l-.08-.95c3.68-1.28,7.75.52,11.47-.85a51.82,51.82,0,0,0-5.49-.62c-1.71-.22-3.8.61-4.93-1.82l8.9.35c-1.4-2.51-3.29-1.15-4.78-1.42s-3.27.87-4.43-1.46l6.74-.35c-2-2.53-5.31-.11-7.17-3l4.39-.21.06-.44-4.56-1.28.23-.85,2.31-.2.28-.67-3.25-1.75a5.46,5.46,0,0,0-.5-3c-.18-.47-.41-.92-.59-1.39-2.27-6.12-4.41-12.29-6.85-18.35a71.62,71.62,0,0,1-4.83-26.33c-.15-14.06,3.77-27.23,9.34-40,6.48-14.82,12.6-29.73,14-46.12.83-9.81,1.54-19.57-1.2-29.2-.17-.61-.82-1.08-1.25-1.62a5,5,0,0,0-.33,1.88c3.67,14.42,2.1,28.84-1.45,42.84-2.72,10.75-7.15,21.1-11.36,31.41-5,12.28-9.15,24.7-9.34,38.08-.07,5.23.4,10.46.65,16.1l-4.38-.87.14-.85,3.42-.24.3-.81A11.73,11.73,0,0,0,206,262c-1.59-.29-3.65.94-4.75-1.57l6.06-.14c-.21-1-.35-1.72-.48-2.37-3.16-.25-6.31,1.32-8.87-1.19a28.14,28.14,0,0,1,4.64-.26,36.4,36.4,0,0,0,4.13-.72l-.18-1c-3.9-1.06-8.15,1.33-12-.42l0-.75,11.61-.92.07-.93a12.6,12.6,0,0,0-2.1-.28c-3.54.11-7.07.32-10.61.37a7.82,7.82,0,0,1-2.36-.76l.18-.71c4.87-.4,9.87.3,14.6-1.39a2.76,2.76,0,0,0-1.78-.55c-4.43.23-8.87.53-13.31.72a9.05,9.05,0,0,1-2.41-.6l.14-.75,17.32-1.35-.07-1.09c-6.77,0-13.6,2-20.33.38V245l20.31-1.4-.07-1c-.43,0-.87-.07-1.31,0-6.43.24-12.87.52-19.31.7a11.7,11.7,0,0,1-2.89-.66l.19-.83,12.19-.56V241l-7.89-.31c-6.39-.25-6.39-.25-7.2-1.34L207.23,238c.22-16.85,6.46-32,8.45-48.14l-6.09-.25c.28,2.17.59,4.29.82,6.43.69,6.35,1,12.67-1.53,18.78-4.41,10.81-17.69,15.77-27.88,10.35A13.8,13.8,0,0,1,178.72,223.22ZM280.41,453.88c.26.37.31.5.36.5,3.44.24,6.89.39,10.33.72a6.39,6.39,0,0,0,5.53-2.18,9.83,9.83,0,0,1,4.57-2.49c4.12-.93,5.77-2.31,6.61-6.5.67-3.38,1.31-6.77,1.95-10.15,1.06-5.59,1.36-11.1-.57-16.65-1.52-4.35-2.63-8.85-3.85-13.3q-23.56-85.5-47.14-171-4.39-15.84-9.65-31.44c-.83-2.48-3-4.79-5-6.51-3.14-2.6-5.3-1.79-6,2.11-2.39,12.37-4.6,24.77-6.81,37.17a5.59,5.59,0,0,0,.4,2.62c2.8,8.34,5.66,16.66,8.48,25q16.11,47.57,32.17,95.14c5.68,16.93,11.11,33.95,16.72,50.92.9,2.74,1,5.28-.6,7.81-2.95,4.77-5.77,9.63-8.77,14.38-1,1.62-2.08,3.09-.57,4.88,1.24,1.45,3.82,1.49,5.7.17,1.19-.82,2.35-1.72,3.61-2.43.65-.37,1.85-.79,2.18-.49a3,3,0,0,1,.8,2.35c-.62,3.1-1.63,6.13-2.16,9.24a11.26,11.26,0,0,1-4.76,7.32C282.66,452,281.53,453,280.41,453.88Zm8.71-19.76c-1.82,1.29-2.95,2.16-4.14,2.92-2.65,1.7-6,1.52-7.8-.36s-1.59-4.66.35-7.45c2.42-3.49,4.83-7,7.05-10.64,2.38-3.89,3.8-7.95,1.54-12.55a49.35,49.35,0,0,1-2.15-6.42q-6.84-20.79-13.7-41.59c-.24-.72-.6-1.4-1-2.45-9.62,6.76-19.13,13.13-28.3,20-8.15,6.07-15.91,12.65-23.86,19-2.27,1.82-3.28,4.15-2.46,7,.73,2.5,1.66,5,2.63,7.38,6,15.07,12,30.18,18.2,45.19,2.35,5.69,5.13,11.22,7.94,16.71,1,1.93,2.26,3.53,5.15,3.69,3.91.21,6.29-2,8.81-4.08,7.9-6.4,15.35-13.42,23.57-19.37C286.78,446.8,287.21,440.77,289.12,434.12Zm23.35-9.83c4.3-4.32,8-8.26,12-12C327.9,409,329,405.39,327,401c-.29-.66-.48-1.37-.72-2.05-5.24-14.7-10.51-29.39-15.7-44.1-1.67-4.7-3.18-9.46-4.7-14.21a4.37,4.37,0,0,0-4.23-3.49c-4.5-.32-7.61,2.54-11,4.63-.27.17-.19,1.16-.06,1.71.85,3.43,1.69,6.87,2.64,10.27q8.88,31.83,17.79,63.66C311.55,419.49,311.9,421.63,312.47,424.29Zm-67.32-70.84c-1.05-6.81-2-13.05-3-19.4-11.78.42-23.37.86-34.95,1.22a99.17,99.17,0,0,1-34.79-5.17c-1.12,6.32-2.22,12.27-3.13,18.25-.09.53.95,1.7,1.6,1.81,6.25,1.09,12.51,2.18,18.81,3a259.87,259.87,0,0,0,46.25,1.24C238.89,354.2,241.84,353.79,245.15,353.45ZM156.32,682.69,111.81,672c-.77,4.67-1.4,9-2.23,13.22-.4,2,0,3.16,2.19,3.75,9.1,2.45,18.13,5.14,27.25,7.5,4.35,1.12,8.83,1.7,13.43,2.56Zm99.48,6.69c1.44,0,2.7,0,3.95-.13,4.25-.29,8.49-.61,12.74-.92,8.05-.59,16.1-1.13,24.14-1.84.86-.08,2.39-1.29,2.33-1.83-.59-5.36-1.44-10.7-2.19-15.84l-44,6.51ZM244.52,475.6c-2.42-4-4.65-7.15-6.34-10.57-2.2-4.47-4.06-9.11-5.91-13.75-6.11-15.34-12.11-30.72-18.22-46.06-2.61-6.54-2.21-9,3.06-13.6,3.82-3.35,7.68-6.7,11.8-9.66,12.6-9.07,25.34-17.95,38-26.94a6.1,6.1,0,0,0,1.2-1.79c-.76.06-1.69-.14-2.25.22-8.7,5.61-17.44,11.17-26,17s-17.12,11.29-24.42,18.66c-5.55,5.59-6.78,11.79-3.92,18.91q11.78,29.3,23.71,58.52a21.05,21.05,0,0,0,4.26,6.23C240.69,474,242.61,474.56,244.52,475.6ZM103.42,725.77c4.06-.11,4.56,2.52,4.76,5.4.11,1.53.28,3.06.45,4.59a3.72,3.72,0,0,0,3.7,3.62c3.15.33,6.3.72,9.42,1.26,1.55.27,2.15-.31,2.42-1.7,1-5.05,2-10.09,2.91-15.16a2.6,2.6,0,0,0-1.14-2.2c-6.84-2.23-13.74-4.3-20.85-6.48C104.51,718.79,104,722.15,103.42,725.77Zm199.33-6.5-24.36.38c1.58,6.6,3,12.76,4.61,18.88a2.8,2.8,0,0,0,2.29,1.31c3.07-.18,6.12-.7,9.19-1,2.47-.24,3.78-1.51,4-4,.1-1.08.3-2.16.39-3.24.27-3.13.23-6.45,4.89-6.38C303.4,723.17,303.12,721.49,302.75,719.27Zm-1-6.67c-.39-2.17-.68-3.67-.94-5.17-1.29-7.35-1.25-7.54-8.6-8.74-6.15-1-12.37-1.52-19-2.29l3.39,17ZM128.89,716c.66-2.61,1.42-5.2,1.89-7.83.1-.57-.71-1.55-1.34-2-3.75-2.37-7.58-4.61-11.37-6.92-3.12-1.91-6.23-3.85-9.67-6-.83,5.52-1.6,10.64-2.35,15.66ZM234.78,118a58.38,58.38,0,0,0,2.35-5.4c1.67-5.19-1.1-11.84-5.77-14.33a5.3,5.3,0,0,0-6.11.67c-1,.81-2.38,2.28-2.25,3.27a81.52,81.52,0,0,0,2.3,9.37C230.51,110.07,233.35,112.11,234.78,118ZM58.11,153.12c-5.83-8.05-10.31-16.65-17.21-23.88-.82,1.39-1.77,3-1.3,4,3.73,7.73,7.72,15.32,11.67,23,1.86-.73,3.31-1.26,4.71-1.87A22.89,22.89,0,0,0,58.11,153.12ZM172.25,323c.22.65.29,1.47.54,1.52a281,281,0,0,0,72.27,6.23,4.86,4.86,0,0,0-2.84-1.08c-15.12-1.11-30.25-2-45.35-3.36C188.78,325.59,180.74,324.16,172.25,323ZM53.15,120.69c-2.44.46-2.77,1.77-2.18,3.65,2.09,6.75,4.08,13.52,6.23,20.24.84,2.63,2,5.15,3,7.89l5.38-2.22L53.88,121.91A10.57,10.57,0,0,0,53.15,120.69ZM171.81,328.14c18.82,5.49,35.35,7,53.27,4.77l-1.33-.14c-9.66-.92-19.35-1.66-29-2.83-6.92-.84-13.76-2.26-20.64-3.41C172.83,326.31,171.44,326,171.81,328.14Zm71.09-.52c-23.47-2.09-47-3.38-71-8.25.79,1,1.06,1.72,1.46,1.8C196.36,325.67,219.58,327.21,242.9,327.62Zm34.51,388.11c-.21,1.86.67,2.35,2.39,2.28,5.51-.2,11-.28,16.53-.41,2-.05,3.92-.13,6.19-.2-.28-1.19-.48-2-.66-2.78ZM225.87,112.65c1,5.78,1.87,10.47,2.81,15.14.12.58.93,1,1.42,1.54l.75-.32c-1.59-3.42-.58-6.25,1.1-9.24a4.77,4.77,0,0,0-1.69-6.27C229.28,112.8,227.67,113,225.87,112.65Zm-98,607.48c1-1.73.11-2.34-1.32-2.79-6.11-1.93-12.2-3.91-18.31-5.83a10.93,10.93,0,0,0-2.26-.21c-1.08,2,.29,2.33,1.52,2.7Zm183.89,60c0-3.38-.06-6.34-.09-9.3l-.67-.63c-.79.59-2.18,1.1-2.28,1.79-.36,2.65-.31,5.36-.43,8.25Zm-12.12-.37c2.3.8,3.23.2,3.05-2a33.46,33.46,0,0,1-.13-4.9c.19-2.62-1.05-2.87-3.35-2.16C299.35,773.72,299.49,776.68,299.64,779.76Zm33.44.22.34-8.69c-1.73-.69-2.64-.16-2.8,1.47-.18,1.79-.31,3.58-.37,5.38C330.18,780.13,331.2,780.65,333.08,780Zm-237.68.37-.88-9.29-1-.43C93,771.34,92,772,92,772.76a51.83,51.83,0,0,0,.3,6C92.37,780.45,93.15,781.21,95.4,780.35Zm-7.83-9c.11,2.67.19,5.16.32,7.66.11,2,1.16,2.39,3,1.59l-.73-9.41ZM301.66,334.51c-2.43-1.51-6.37-.89-10.84,2.28a11.35,11.35,0,0,0-2,2.68l.53.17Zm27,445.63.35-8.9c-2.73-.5-2.89-.49-3,1.17-.19,2.5-.23,5-.33,7.61ZM71.77,771.6c.23,2.29.6,4.61.65,6.93s1.26,2.34,2.94,1.76c-.22-2.38-.4-4.63-.63-6.88C74.56,771.7,73.93,770.61,71.77,771.6Zm249.75-.52c.09,2.73.12,5.35.3,8,0,.45.67.85,1,1.27.42-.46,1.15-.88,1.2-1.38.2-2.07.15-4.17.28-6.25C324.44,770.78,323.48,770.55,321.52,771.08Zm-14.47-.14-.69-.6c-.71.53-2,1-2,1.61a46.87,46.87,0,0,0,0,7c0,.43.68.84,1,1.26.46-.42,1.27-.8,1.31-1.25C306.9,776.3,306.94,773.62,307.05,770.94ZM102.3,781.29c.13-3.34.22-5.76.33-8.19.08-2-.79-2.33-2.63-1.57.12,2.75.13,5.45.41,8.13C100.46,780.19,101.49,780.63,102.3,781.29Zm-26.23-9.86c.29,2.68.6,5,.77,7.34.13,1.76.91,2.17,2.56,1.5-.23-3-.45-5.92-.69-9Zm236.82,3.23.39.19a32.54,32.54,0,0,0,.25,4.32c.08.47,1,.8,1.47,1.2.32-.45.88-.88.92-1.34a18.52,18.52,0,0,0,0-4.34,25.33,25.33,0,0,0-1.3-4C314,772,313.45,773.34,312.89,774.66Zm6.89-3.54c-2-.79-2.6.06-2.48,1.85.13,2,.12,4,.37,6,.07.54.88,1,1.34,1.46.39-.48,1.1-1,1.1-1.46C320.1,776.4,319.91,773.87,319.78,771.12Zm-24.58,8.6c2.05.66,2.85.19,2.72-1.62-.15-2.08-.16-4.17-.35-6.24-.05-.5-.54-1-.83-1.43-.41.47-1.14.9-1.18,1.39C295.34,774.43,295.3,777.05,295.2,779.72Zm46.3.26c0-2.4,0-4.81-.09-7.21,0-.52-.67-1-1-1.51-.42.55-1.13,1-1.2,1.64-.22,1.87-.16,3.77-.27,5.65C338.78,780.59,339.85,780.53,341.5,780ZM109,780.73l1-.37c.1-2.5.19-5,.3-7.5.09-2-.82-2.29-2.69-1.49C108.72,774.4,106.88,778,109,780.73Zm177-10.26c-1.4-.48-2.51-.58-2.43,1.44.07,1.81,0,3.64.28,5.43A11.08,11.08,0,0,0,285,780l.68-.19Zm-181.78,10.2,2.38-.2c-.18-3.35-.34-6.44-.51-9.69C104,771.63,104,771.63,104.22,780.67Zm-37.83.12.66-.51c0-2.51,0-5-.18-7.53,0-.46-.81-.87-1.25-1.31-.34.41-1,.83-1,1.24a58.28,58.28,0,0,0,.33,6.74C65,779.93,65.89,780.34,66.39,780.79Zm223.51-5.57h-.1a29.66,29.66,0,0,0,.09-3.52c0-.45-.63-.86-1-1.28-.35.41-1,.81-1,1.26-.19,2.34-.28,4.7-.27,7.05,0,.41.64.82,1,1.23.38-.41,1-.77,1.08-1.22A27.39,27.39,0,0,0,289.9,775.22Zm3.79.13h0a32,32,0,0,0,.09-3.52c0-.47-.59-.89-.9-1.34-.43.45-1.18.86-1.22,1.33-.19,2.26-.24,4.52-.21,6.78,0,.46.57.92.88,1.38.4-.46,1-.87,1.16-1.39A19.38,19.38,0,0,0,293.69,775.35Zm43.64.54h0a25.76,25.76,0,0,0,.09-3.51c0-.45-.67-.84-1-1.25-.41.36-1.15.7-1.18,1.09-.18,2.25-.24,4.51-.2,6.77,0,.42.64.84,1,1.26.4-.37,1.08-.68,1.16-1.12A20.44,20.44,0,0,0,337.33,775.89Zm-286-4.78-1,.56c-.1,2.51-.27,5-.24,7.54,0,.45.76.89,1.17,1.34.32-.44.88-.86.92-1.32A49.85,49.85,0,0,0,52.5,773C52.48,772.36,51.72,771.74,51.3,771.11Zm45.27-.78c-.55,6.46.26,10.06,2.2,10.19-.12-2.72-.17-5.42-.43-8.1C98.28,771.85,97.47,771.35,96.57,770.33Zm-14,10.55.53-.54c-.21-2.5-.37-5-.69-7.52-.06-.52-.7-1-1.07-1.47-.31.45-.89.91-.88,1.36a46.89,46.89,0,0,0,.5,6.48C81.07,779.82,82,780.32,82.58,780.88Zm29.26-5.26h.09a36.77,36.77,0,0,0-.1,3.78c0,.46.57.88.88,1.32.37-.4,1-.79,1.05-1.2.12-2.43.13-4.87,0-7.3,0-.4-.7-.77-1.08-1.16-.31.44-.83.85-.89,1.32A25,25,0,0,0,111.84,775.62Zm-55.67,1h-.09a34.76,34.76,0,0,0,.1-3.53c0-.4-.54-.76-.83-1.14-.37.31-1,.59-1.06.93q-.3,3.39-.33,6.8c0,.34.72,1,.89,1,.47-.17,1.07-.61,1.15-1A17.35,17.35,0,0,0,56.17,776.59Zm292.84.52-.37-.15a32.2,32.2,0,0,0-.21-3.81c-.08-.55-.66-1-1-1.53-.35.51-.94,1-1,1.54a13.43,13.43,0,0,0,.15,3.8c.23,1.13-1.14,3,1.11,3.19C348.06,780.18,348.57,778.17,349,777.11ZM86.09,780.73c.85-4.09,0-8.89-1.6-9.45C83.62,775.13,84.41,779.79,86.09,780.73ZM69.81,771l-1.21.64c0,2.67,0,5.34.15,8,0,.34.69.65,1.06,1,.33-.43,1-.87.94-1.27-.12-2.35-.38-4.69-.62-7A10.41,10.41,0,0,0,69.81,771Zm-12.44,4.95.49.15a19.72,19.72,0,0,0-.08,3,5.24,5.24,0,0,0,.86,1.63c.39-.57,1-1.1,1.13-1.71a9.85,9.85,0,0,0-.13-3c-.21-1.41-.53-2.81-.8-4.2Zm61.19,5.23c1.92-2.37,1.94-8.82.4-10.23Zm225.5-9.71-1,0c.06,2.92.13,5.83.21,9.3C345.25,778.75,345.39,773.7,344.06,771.44Zm-281.2.64-1.06-.33c-1.16,2.45-.46,5.17-.24,7.78,0,.39.89.7,1.77,1.34C63.15,777.46,63,774.77,62.86,772.08Zm291.52,8.31.79,0c-.11-2.91-.22-5.82-.34-9.28C352.9,773.08,353,778.11,354.38,780.39Zm-237.81-9.18h-.64l-.36,9.13h.64Zm233.71,9.65c2.13-1.84,1.92-7.75-.2-9.36ZM163.42,238.35l.06,1.12,9.81-.62-.07-1ZM121.68,779.76l.52,0,.35-8.81-.52,0ZM233.24,268.17c1,3.23,3,1.91,5.14,2.1C237.28,267.41,235.2,268.59,233.24,268.17ZM357.5,771.65l-.91,0c.14,2.71.29,5.42.43,8.13l.86,0C357.75,777.07,357.63,774.36,357.5,771.65ZM237.23,263.9l.14-1.12-5.19-.21-.1.88Zm-39.41-23.19.07.56,8.16-.48-.1-1.16Zm39,19.92.17-1-5.14-.84-.23,1.12C233.14,261,234.94,261,236.81,260.63ZM236.2,258c-.92-2.81-2.62-3.07-5.12-1.07Zm-60.07-44.56-.11-.72c-2.86-.46-4.68,0-5.31,1.83Zm-.91,7.89-.13-1.27-5.71.78.1.64Z"/><path class="cls-1" d="M339.74,32c-.23-6.49-.47-13.35-.73-20.76-5.61.85-11,1.64-16.43,2.51-3.84.63-7.65,1.53-11.51,2-2.23.27-2.91,1-2.64,3.27.78,6.29,1.41,12.6,2,18.92.27,2.85.17,5.81-2.66,7.48-3.56,2.1-7.33,3.9-11.57,2-3.31-1.52-3.36-5.85-.18-8.31s7.16-3.14,12.67-2.32c-.45-4.09-.95-8.1-1.33-12.12-.52-5.54-.86-11.1-1.45-16.64-.24-2.28.58-3.43,2.76-3.78,6.34-1,12.68-2.07,19-3.05,2.77-.42,5.56-.75,8.35-1,3.37-.34,4.34.51,4.49,3.75q.27,6.11.52,12.23c.32,7.79.56,15.58,1,23.36.14,2.58-.73,4.17-3.27,4.33a48.76,48.76,0,0,1-9.36-.08c-2.25-.3-3.32-2.27-3.48-4.62s.76-4.32,3-4.93C332.38,33.16,335.94,32.69,339.74,32Z"/><path class="cls-1" d="M267.18,33c.36,1,.8,2,1.09,3.11,2,7.53,3.92,15.09,6,22.59a70.57,70.57,0,0,0,2.82,7.36c1.16,2.82.91,4.9-1.68,6.33a47.51,47.51,0,0,1-10,4.1c-1.32.37-3.79-.39-4.46-1.44a6.09,6.09,0,0,1,0-5c1.66-3.58,4.88-5.5,8.69-6.34,1.31-.29,2.67-.38,4.06-.58-2.62-10-5.22-19.88-7.81-29.78Z"/><path class="cls-1" d="M84.21,754.68C83,750.54,82,747,81,743.32l6.84-2.46c.61,3.4,1.55,6.55,1.62,9.73C89.52,753.51,86.38,753.22,84.21,754.68Z"/><path class="cls-1" d="M72.34,746.25c.38,2,.69,3.59,1,5.18.79,4.26.6,4.5-4.37,5.28-.62-2.55-1.31-5.14-1.85-7.76a1.68,1.68,0,0,1,.84-1.38C69.26,747,70.66,746.74,72.34,746.25Z"/><path class="cls-1" d="M331.44,744.61l3.78,1.33-1.35,7.56C329.17,752.54,328.89,751.58,331.44,744.61Z"/><path class="cls-1" d="M318.34,740.19c3.71.82,3.73.82,3.23,4.35-.2,1.41-.48,2.82-.73,4.27C315.68,747,315.73,747,318.34,740.19Z"/><path class="cls-1" d="M357.52,772.06l.36,7.73-.86,0c-.14-2.61-.28-5.23-.41-7.84l-1.76-.16c.12,3.14.22,5.85.32,8.55l-.79,0a9.72,9.72,0,0,1-.06-8.61c-37.18-3.23-91.19-5.27-151.32-5.27s-114,2-151.19,5.25A2.46,2.46,0,0,1,52.5,773a49.85,49.85,0,0,1-.32,6.22c0,.46-.6.88-.92,1.32-.41-.45-1.17-.89-1.17-1.34,0-2.44.13-4.88.23-7.31C19,774.67,0,778.31,0,782.3c0,8.72,90.89,15.78,203,15.78S406,791,406,782.3C406,778.39,387.75,774.82,357.52,772.06ZM56.17,776.59a17.35,17.35,0,0,1-.17,3c-.08.42-.68.86-1.15,1-.17.06-.9-.62-.89-1q0-3.4.33-6.8c0-.34.69-.62,1.06-.93.29.38.8.74.83,1.14a34.76,34.76,0,0,1-.1,3.53Zm3.6,2.37c-.09.61-.73,1.14-1.13,1.71a5.24,5.24,0,0,1-.86-1.63,19.72,19.72,0,0,1,.08-3l-.49-.15,1.47-4.12c.27,1.39.59,2.79.8,4.2A9.85,9.85,0,0,1,59.77,779Zm1.79.57c-.22-2.61-.92-5.33.24-7.78l1.06.33c.15,2.69.29,5.38.47,8.79C62.45,780.23,61.59,779.92,61.56,779.53Zm4.83,1.26c-.5-.45-1.38-.86-1.43-1.37a58.28,58.28,0,0,1-.33-6.74c0-.41.65-.83,1-1.24.44.44,1.22.85,1.25,1.31.17,2.5.14,5,.18,7.53Zm3.42-.21c-.37-.32-1-.63-1.06-1-.12-2.66-.12-5.33-.15-8l1.21-.64a10.41,10.41,0,0,1,.32,1.31c.24,2.34.5,4.68.62,7C70.77,779.71,70.14,780.15,69.81,780.58Zm2.61-2.05c0-2.32-.42-4.64-.65-6.93,2.16-1,2.79.1,3,1.81.23,2.25.41,4.5.63,6.88C73.68,780.87,72.48,781,72.42,778.53Zm4.42.24c-.17-2.33-.48-4.66-.77-7.34l2.64-.13c.24,3.05.46,6,.7,9C77.75,780.94,77,780.53,76.84,778.77Zm5.74,2.11c-.56-.56-1.51-1.06-1.61-1.69a46.89,46.89,0,0,1-.5-6.48c0-.45.57-.91.88-1.36.37.49,1,.95,1.07,1.47.32,2.5.48,5,.69,7.52Zm3.51-.15c-1.68-.94-2.47-5.6-1.6-9.45C86.13,771.84,86.94,776.64,86.09,780.73Zm1.8-1.73c-.13-2.5-.21-5-.32-7.66l2.6-.16c.25,3.2.49,6.29.73,9.41C89.05,781.39,88,781,87.89,779Zm4.38-.28a51.83,51.83,0,0,1-.3-6c0-.74,1-1.42,1.59-2.13l1,.43c.29,3.08.58,6.17.88,9.29C93.15,781.21,92.37,780.45,92.27,778.72Zm4.3-8.39c.9,1,1.71,1.52,1.77,2.09.26,2.68.31,5.38.43,8.1C96.83,780.39,96,776.79,96.57,770.33Zm5.73,11c-.81-.66-1.84-1.1-1.89-1.63-.28-2.68-.29-5.38-.41-8.13,1.84-.76,2.71-.38,2.63,1.57C102.52,775.53,102.43,778,102.3,781.29Zm1.92-.62c-.19-9-.19-9,1.87-9.89.17,3.25.33,6.34.51,9.69Zm5.76-.31-1,.37c-2.1-2.76-.26-6.33-1.39-9.36,1.87-.8,2.78-.5,2.69,1.49C110.17,775.36,110.08,777.86,110,780.36Zm3.78-.84c0,.41-.68.8-1.05,1.2-.31-.44-.85-.86-.88-1.32a36.77,36.77,0,0,1,.1-3.78h-.09a25,25,0,0,1,0-3.24c.06-.47.58-.88.89-1.32.38.39,1.06.76,1.08,1.16C113.89,774.65,113.88,777.09,113.76,779.52Zm2.45.83h-.64l.36-9.13h.64Zm2.35.8c.14-3.74.27-6.94.4-10.23C120.5,772.33,120.48,778.78,118.56,781.15Zm3.64-1.36-.52,0q.16-4.41.35-8.82l.52,0C122.44,773.92,122.32,776.85,122.2,779.79Zm163.43,0L285,780a11.08,11.08,0,0,1-1.1-2.67c-.24-1.79-.21-3.62-.28-5.43-.08-2,1-1.92,2.43-1.44C285.87,773.65,285.75,776.73,285.63,779.82Zm4.27-4.6a27.39,27.39,0,0,1-.19,3.52c-.07.45-.7.81-1.08,1.22-.35-.41-1-.82-1-1.23,0-2.35.08-4.71.27-7.05,0-.45.66-.85,1-1.26.34.42.93.83,1,1.28a29.66,29.66,0,0,1-.09,3.52Zm3.81.13h0a19.38,19.38,0,0,1-.18,3.24c-.11.52-.76.93-1.16,1.39-.31-.46-.87-.92-.88-1.38,0-2.26,0-4.52.21-6.78,0-.47.79-.88,1.22-1.33.31.45.86.87.9,1.34A32,32,0,0,1,293.71,775.35Zm1.49,4.37c.1-2.67.14-5.29.36-7.9,0-.49.77-.92,1.18-1.39.29.48.78.93.83,1.43.19,2.07.2,4.16.35,6.24C298.05,779.91,297.25,780.38,295.2,779.72Zm4.44,0c-.15-3.08-.29-6-.43-9.06,2.3-.71,3.54-.46,3.35,2.16a33.46,33.46,0,0,0,.13,4.9C302.87,780,301.94,780.56,299.64,779.76Zm7-.79c0,.45-.85.83-1.31,1.25-.36-.42-1-.83-1-1.26a46.87,46.87,0,0,1,0-7c.06-.6,1.33-1.08,2-1.61l.69.6C306.94,773.62,306.9,776.3,306.67,779Zm1.62,1.27c.12-2.89.07-5.6.43-8.25.1-.69,1.49-1.2,2.28-1.79l.67.63c0,3,.06,5.92.09,9.3Zm7.63-1.21c0,.46-.6.89-.92,1.34-.51-.4-1.39-.73-1.47-1.2a32.54,32.54,0,0,1-.25-4.32l-.39-.19c.56-1.32,1.13-2.64,1.7-3.95a25.33,25.33,0,0,1,1.3,4A18.52,18.52,0,0,1,315.92,779Zm3.09,1.36c-.46-.48-1.27-.92-1.34-1.46-.25-2-.24-4-.37-6-.12-1.79.45-2.64,2.48-1.85.13,2.75.32,5.28.33,7.81C320.11,779.42,319.4,779.91,319,780.39Zm5-1.46c-.05.5-.78.92-1.2,1.38-.35-.42-1-.82-1-1.27-.18-2.61-.21-5.23-.3-8,2-.53,2.92-.3,2.8,1.6C324.19,774.76,324.24,776.86,324,778.93Zm4.64,1.21-3-.12c.1-2.59.14-5.11.33-7.61.12-1.66.28-1.67,3-1.17C328.92,774.08,328.81,776.94,328.68,780.14Zm4.4-.16c-1.88.67-2.9.15-2.83-1.84.06-1.8.19-3.59.37-5.38.16-1.63,1.07-2.16,2.8-1.47C333.31,774.14,333.19,777.05,333.08,780Zm4.25-4.09a20.44,20.44,0,0,1-.18,3.24c-.08.44-.76.75-1.16,1.12-.35-.42-1-.84-1-1.26,0-2.26,0-4.52.2-6.77,0-.39.77-.73,1.18-1.09.36.41,1,.8,1,1.25a25.76,25.76,0,0,1-.09,3.51Zm1.58,2.66c.11-1.88,0-3.78.27-5.65.07-.59.78-1.09,1.2-1.64.36.51,1,1,1,1.51.12,2.4.08,4.81.09,7.21C339.85,780.53,338.78,780.59,338.91,778.55Zm4.32,2.15c-.08-3.47-.15-6.38-.21-9.3l1,0C345.39,773.7,345.25,778.75,343.23,780.7Zm4.47-.55c-2.25-.17-.88-2.06-1.11-3.19a13.43,13.43,0,0,1-.15-3.8c0-.53.63-1,1-1.54.35.51.93,1,1,1.53a32.2,32.2,0,0,1,.21,3.81l.37.15C348.57,778.17,348.06,780.18,347.7,780.15Zm2.58.71c-.07-3.37-.13-6.19-.2-9.36C352.2,773.11,352.41,779,350.28,780.86Z"/><path class="cls-1" d="M191.57,360.89c0-2.21,1.48-2.63,3.29-2.65,2.38,0,3.18,1.55,3.21,3.5s-1.29,3.12-3.3,3.14C193,364.9,191.5,363,191.57,360.89Z"/><path class="cls-1" d="M167.5,101.64c-.07,1.94-.13,3.89-.23,5.83-.21,4.44-.53,8.88-.65,13.32-.09,3.5,1.08,4.72,4.56,5.09,1.29.14,2.6.12,4.1.18-.27.72-.29,1.09-.45,1.18-4,2.19-10-1.19-9.85-5.7.16-6.07.57-12.14.92-18.21a7.93,7.93,0,0,1,.59-1.87Z"/><path class="cls-1" d="M201.79,108.54c-1-.11-1.42,0-1.63-.21-6-5.18-11.55-2.86-17.07.87a2.87,2.87,0,0,1-2.12.5,14.52,14.52,0,0,1,11.11-5.89C195.91,103.57,199.43,104.21,201.79,108.54Z"/><path class="cls-1" d="M143.92,109.72c1-3.6,4.53-5.4,9.26-5.23,4.37.16,8,2.52,9.07,6.91C156.19,105,150.23,104.33,143.92,109.72Z"/><path class="cls-1" d="M193.18,126.39a12.62,12.62,0,0,1-4.58,9.87c-3,2.6-6.4,3.81-10.48,2.22,3.16-1.14,6.61-1.61,8.95-3.47S190.86,129.8,193.18,126.39Z"/><path class="cls-1" d="M177.39,317.05c6.24-.69,12.11,1.45,18,3.19l-18-2.5Z"/><path class="cls-1" d="M203,319.31l11.88,1.08C212.23,321.71,209.88,321.52,203,319.31Z"/><path class="cls-1" d="M192.57,336.6a5.25,5.25,0,0,1,2.34,6.45c-.82,2.13-2.53,2.86-5.57,2.19,1.45-1.14,3.41-1.92,3.89-3.25S192.88,338.65,192.57,336.6Z"/></svg>