<svg id="Layer_1" data-name="Layer 1" xmlns="http://www.w3.org/2000/svg" viewBox="0 0 744 1463.05"><defs><style>.cls-1{fill:#363636;}</style></defs><title>unnamed (9)</title><path class="cls-1" d="M124.74,1377.37c1.65,6,3,10.74,4.29,15.55,1.19,4.46,4,5.87,8.3,4.47,1.74-.56,3.49-1.1,5.23-1.69,4-1.37,5.92-4,5.13-8.4-.91-5.06-1.69-10.15-2.62-15.76l6-2c1.76,5.91,3.32,11.46,5.06,17,2.2,7,4.87,8.08,11.53,5,9.49-4.34,10.25-5.83,8.22-16.2q-.54-2.68-1-5.39c-1.49-8-1.43-7.93,5.44-12.48a9.06,9.06,0,0,0,2.93-4.3c1.32-3.58,2.22-7.31,3.41-10.94.46-1.41.87-3.31,1.94-4,8.38-5.23,6.11-14.23,7.53-21.68,2.58-13.54,4.28-27.25,6.1-40.92,2-15,3.53-30,5.62-45,2.95-21.07,6.24-42.1,9.37-63.15q4.61-31.1,9.18-62.18,4.68-31.58,9.38-63.16,4-26.88,8-53.78,4.72-31.82,9.47-63.64c3.07-20.73,6.08-41.46,9.15-62.19q4.68-31.57,9.42-63.14,4.58-30.84,9.13-61.68Q284.43,714,288,690.33c.11-.78.13-1.58.24-2.8-9.75,9.21-21.72,11.73-33.85,12.12-30,1-57.71-6.86-82.52-23.85s-39-41.58-45.61-70.36c-11.3-49.23-3.5-95.88,21.61-139.52,3.24-5.64,3.87-10,1.46-15.93-13-32.24-25.64-64.63-38.31-97-1.23-3.14-2.93-4.47-6.45-5-8.92-1.23-15.24-6.95-19.28-14.49-3.74-7-5.9-14.79-9.22-22a116.08,116.08,0,0,0-9-16.41c-4.85-7.16-10.52-13.77-15.47-20.86a15.33,15.33,0,0,1-3-8.3c0-2.57,1.43-6.24,3.4-7.37s6.2-.67,8.05.81c5.43,4.36,10.11,9.64,15.2,14.43s10.17,9.26,15.26,13.88l1-.82c-1.88-4.39-3.89-8.72-5.61-13.16-3.59-9.32-7.15-18.65-10.47-28.06a21.27,21.27,0,0,1-1.12-7.84c.29-6.3,5.68-9.45,10.84-5.95a24.88,24.88,0,0,1,7.6,8.86c4.93,9.45,9.23,19.22,13.86,28.83a31.65,31.65,0,0,0,5.09,7.63c-.13-.95-.22-1.92-.4-2.87-2.25-11.94-4.55-23.87-6.74-35.83a26.55,26.55,0,0,1-.27-6c.24-4.9,3.18-8.38,7.24-8.82,5.3-.57,9.36,1.86,10.83,6.65,6.09,19.73,12.08,39.49,18.28,59.18.77,2.47,2.58,4.61,3.91,6.9,1.62-2.18,3.63-4.17,4.78-6.58,3.46-7.22,6.38-14.74,13.36-19.53,3.76-2.59,10.89-1.42,13.15,2.48a6.43,6.43,0,0,1,.1,4.7c-5,15-10.22,29.91-15.29,44.88-2.9,8.54-9.85,12.16-17.89,14.74,13.14,26.37,26.14,52.49,39.27,78.85,15.18-13.63,30-26.5,44.29-40a117.33,117.33,0,0,0,16.56-19.31c15-22.09,15.94-45.26,3.32-68.77-5.42-10.11-11.79-19.71-17-29.91-11.72-22.88-13.13-47.54-11.07-72.56,1.39-16.92,3.93-33.71,10-49.72,6.23-16.43,15.51-30.74,30.84-40,4.78-2.88,10.82-3.66,16.29-5.4,1.19-.38,2.83-.41,3.5-1.22C287.29,78.78,299,74,311.41,71c21.22-5,42.3-5.43,63.34,2.14,20.89,7.52,35,22.11,45.18,41A139.44,139.44,0,0,1,437,181.18c0,34.48-.72,69-.92,103.45-.12,20.32.12,40.64.24,61,0,4.49,2,7.31,6.21,9.71s8.4,5.93,10.66,10a112.29,112.29,0,0,1,8.89,22.05c8,26.92,15.66,54,23.47,81a10.65,10.65,0,0,0,1.7,3.56c9.59,12.16,18.8,24.67,29,36.28,7.9,9,12.25,18.78,12.51,30.62.1,4.32.54,8.63.83,13s1.93,7.37,5.49,10.38c22,18.65,37.43,41.51,41.39,70.71,1.17,8.68.6,17.59.95,26.39a26.31,26.31,0,0,0,1.05,7.76c8.45,23.31,17.09,46.54,25.62,69.82,2.52,6.88,1.3,13.19-3.68,18.54-6.69,7.2-13.26,14.57-20.49,21.2-4.95,4.54-6.64,9.81-7.43,16.11-1,8.23-2.67,16.39-4.22,24.55-1.3,6.86-5.8,10.31-12.41,12.08a20.42,20.42,0,0,0-9,5.19c-3.88,4-8.37,5.22-13.52,4.93-4.16-.23-8.46-.21-12.4-1.33-12.59-3.56-18.38,6.24-25.26,13-1.72,1.71-.37,7,.18,10.47q12.93,83.22,26.06,166.42,12.06,76.58,24.24,153.13c4,25.27,9.73,50.44,11.39,75.87,1.53,23.32,6.46,45.89,9.82,68.79.29,1.94,2.33,3.57,3.35,5.46a117.18,117.18,0,0,1,5.52,11c1.85,4.49,1.88,10,7.95,11.73.6.16,1.06,1.87,1.05,2.86a17.41,17.41,0,0,1-.86,3.89c-2.77,11.47-2.06,12.83,9.12,17.48,4.34,1.8,6.25,1,7.2-3.59.88-4.21,1.36-8.49,2.11-13.31l7.09,2.27c-.88,3.8-1.5,7.22-2.49,10.53-1.3,4.35-.07,7.22,3.92,9.54,10.59,6.17,12.22,5.51,14.35-6.58.43-2.44.83-4.88,1.47-8.69,12.62,4.1,24.78,7.84,36.73,12.18,1.77.64,3.51,4.07,3.57,6.27.26,8.3-.26,16.63-.34,25-.05,5.15,0,10.32.34,15.45s-2,6.36-6.52,6.34c-14.16-.07-28.32.08-42.48.16q-42,.24-83.93.51c-7,0-9.16-1.32-9.77-8.29q-2.44-27.86-4.19-55.77c-.23-3.7,1-7.47,1.49-11.23a14,14,0,0,0,0-4.91c-7.3-28.82-14.69-57.61-22.24-87.1-5.19.35-10.77.71-16.36,1.11-.83.06-1.64.3-2.47.36-8.09.6-8.12.56-9.84-7.18q-43.1-193.44-86.2-386.88a7.83,7.83,0,0,0-2.22-4.2q-47.11,209.34-94.27,418.8l-33.6-6.19c-2.39,10.75-4.71,21.08-7,31.43-3.19,14.44-6.44,28.87-9.39,43.36-.48,2.31.55,4.9.76,7.38a107.74,107.74,0,0,1,.83,12.4c-.58,17.63-1.38,35.25-2.1,52.87-.3,7.28-1,8.12-8.15,8.21q-51.95.61-103.89,1.1c-8,.08-16,.07-24,.34-4.16.14-5.82-1.93-5.84-5.67-.08-13.83-.27-27.65.1-41.47a8.64,8.64,0,0,1,4.23-6.36C108.15,1383,116.21,1380.44,124.74,1377.37ZM337.19,741.71c7,2.08,13,4,19,5.63,2.73.74,4,2,4.64,5,3.8,17.71,7.91,35.35,11.85,53q45.45,203.88,90.88,407.74c1.76,7.87,3.61,15.71,5.44,23.64l80.56-12.84c-19.48-123.76-38.75-246.17-58.15-369.47-4.25,3.64-7.73,6.7-11.3,9.66-8.06,6.68-16.55,12.41-27.6,12.53-9.38.1-16.29-4.27-19.89-12.79q-11.46-27.16-22.87-54.33c-8.2-19.5-16.6-38.91-24.52-58.51-6.9-17.1-4.51-27,9.27-39.14,6.6-5.83,13.74-11.07,20.79-16.37,13.86-10.39,27.88-20.58,41.7-31,1.48-1.12,3.07-3.45,2.93-5.07a45.06,45.06,0,0,0-2.72-11.59c-.67-1.81-2.73-3.11-4.16-4.64l-1.83,1.43,3.57,7.14c-36.93,6.36-73.6,4.67-110.87,1.69.25,11.31.49,22.1.72,32.89l-1.92.14c-2.36-5.12-1.6-10.81-1.93-16.27-.35-5.78-.44-11.58-.64-17.37-12.14-3.5-25.14-2-37.77-7.39l4.52-3.23c-6.91-.08-9.4,3-10.52,11.19-2.08,15.31-4.38,30.6-6.64,45.9q-4.69,31.82-9.47,63.63-4.6,31.08-9.19,62.17c-3.1,20.88-6.26,41.76-9.35,62.64s-6.11,41.79-9.2,62.68q-4.69,31.81-9.46,63.63-4.62,31.08-9.2,62.17-4.68,31.57-9.39,63.14c-3.14,21-6.35,42.09-9.39,63.15-1.48,10.3-2.64,20.65-3.93,30.9l82.4,18.79c8.16-36.47,16-71.65,23.91-106.81q30.62-135.88,61.43-271.73c2.05-9,2.66-17.42,0-26.34a224.09,224.09,0,0,1-6.05-26.73c-2.17-13.18-7.08-25.15-13.52-36.75C351.89,770.26,344.93,756.44,337.19,741.71Zm-18.81-178c28.63,6.69,57.93,8.57,87,12.34-14.69,1.26-29.19-.57-43.66-2.18s-28.79-3.72-43.19-5.61l-.19,1.6,85.28,10.76a4.89,4.89,0,0,1-3.86,2,76,76,0,0,1-7.94-.81q-30.19-3.74-60.38-7.49c-4.54-.57-9.08-1.18-13.62-1.77l-.21,1.91c27.24,6.86,55.31,7.93,83.15,11-14,2-27.86.08-41.67-1.37-14.12-1.49-28.15-3.89-42.69-6,.46,1.59.84,2.87,1.21,4.14-32.49,12.35-35.9,43.46-24.3,68.79a97.59,97.59,0,0,0-1.93-14.87c-4.17-20.9,3.06-38.35,20.32-47.76a16.4,16.4,0,0,1,9.31-1.55c13.68,1.72,27.25,4.35,40.94,5.8,17.88,1.89,35.84,3.1,53.78,4.34,8.35.58,16.75.54,25.13.78.05-.62.11-1.25.17-1.87l-42.51-3.19-.17-1.3c2.08-.43,4.19-1.33,6.23-1.2,8.81.55,17.59,1.44,26.38,2.1a51.93,51.93,0,0,0,5.84-.18l.05-2.07-32.33-2.48.09-1.89c9.35-1.67,18.83,1.08,28.38.06a7.23,7.23,0,0,0-4.56-2.14c-7.07-.33-14.15-.46-21.22-.66-.06-.61-.11-1.22-.17-1.83,6.75-2.17,14.2.75,21-1.65-3.37-.81-6.77-.67-10.1-1.08-3.12-.37-7,1.2-9.05-3.25l16.48.47c-2.83-4.41-6.2-2.07-9-2.5-2.54-.39-6,1.69-8.12-2.6l12.33-.75c-3.79-4.62-9.75-.08-13.17-5.31l8-.47.11-.82-8.43-2.27c.15-.52.3-1,.46-1.55l4.22-.4.5-1.25-6-3.12a9.79,9.79,0,0,0-1-5.43c-.29-.71-.78-1.34-1.05-2-4.31-11.33-8.34-22.79-13-34-6.4-15.47-9-31.64-9.37-48.18-.55-25.78,6.36-50,16.33-73.49,11.59-27.3,22.5-54.75,24.72-84.84,1.32-18,2.44-35.89-2.78-53.49-.33-1.12-1.54-2-2.34-2.94-.2,1.16-.82,2.43-.55,3.46,7,26.37,4.43,52.83-1.81,78.57-4.78,19.75-12.69,38.82-20.2,57.8-9.07,22.92-16.43,46.11-16.39,71,0,9.25,1,18.49,1.57,28.5L372.44,488c.08-.52.16-1,.25-1.57l6.26-.5.55-1.49a22.27,22.27,0,0,0-4-1.46c-2.92-.51-6.67,1.8-8.73-2.79l11.1-.37c-.4-1.86-.68-3.16-.93-4.35-5.79-.36-11.52,2.54-16.27-2,2.88-.68,5.71-.38,8.5-.58a65.47,65.47,0,0,0,7.55-1.4c-.11-.6-.23-1.21-.35-1.82-7.17-1.89-14.92,2.61-22-.54l.06-1.38,21.27-1.92.12-1.7a24.44,24.44,0,0,0-3.88-.46c-6.48.26-13,.72-19.44.88-1.43,0-2.89-.87-4.33-1.35l.32-1.31c8.91-.82,18.09.36,26.73-2.83a5,5,0,0,0-3.27-1c-8.14.51-16.26,1.16-24.39,1.59-1.46.08-2.95-.68-4.43-1.06l.24-1.38,31.72-2.8c0-.67-.09-1.34-.14-2-12.42.11-24.9,3.86-37.26,1.1l0-1.33,37.21-3-.15-1.77c-.8,0-1.61-.1-2.4-.06-11.8.57-23.59,1.22-35.39,1.68-1.75.06-3.54-.76-5.32-1.17.12-.51.23-1,.35-1.51l23.09-1.32c-10.06-1.47-19.69.16-28.87-2l.18-2.43c8.1.24,16.21.91,24.28.58,8.23-.34,16.42-1.67,25.14-2.62l.86-30.17c-7.78,3.26-15.73,7.64-24.23,9.88-10.47,2.75-20.6-.27-24.95-5.63.83.07,1.44.1,2,.18,19.62,2.76,33-10.76,29.61-30.44-2.31-13.24-6.26-26.23-8.08-39.52-1.3-9.42-2.21-19.68.15-28.66a526.2,526.2,0,0,1,18.94-56.68c5.23-13.42,7.7-26.76,5.63-40.93-2.05-14-9.16-24.24-22.73-29-8.6-3-17.47-5.35-26.24-7.89-21.83-6.34-44.09-11.78-60.39-30-2,15.93-8.85,28.95-20.77,39.32a5.58,5.58,0,0,0-1.29,4c.38,9.3.42,18.66,1.58,27.87,1.72,13.67,5,27.05,15.54,37,14.45,13.58,32.05,20.87,51.46,23.18,9.13,1.09,11.82,5,11.93,13,.09,6.32.78,12.62.89,18.94.28,15.23,3.15,30.33,1.15,45.69-2.39,18.44-3.88,37-5.84,55.5-.67,6.29-1.57,12.56-2.5,19.9-2.27-3-3.73-4.87-5.22-6.83L315.7,426l-9-6.47.58-1.06,9.6-.6-.08-1.31c-2.6-.07-5.19-.2-7.79-.21-5.35,0-7.52-2.78-6.15-7.85,1.55-5.78,3.28-11.52,4.54-17.35,1.8-8.33,3.25-16.73,5.05-26.2l-24.3,11.73a12.25,12.25,0,0,1-.71-2.15c-1.84-17.68-3.9-35.33-5.41-53-1.31-15.17-3.82-30-9.58-44.16-.77-1.9-2.48-3.42-3.76-5.11,2.23,10,5.6,19.26,7.46,28.84,1.9,9.75,2.3,19.79,3.38,29.71,1.6,14.86,3.29,29.71,4.77,44.58a22.28,22.28,0,0,1-.69,7.57c-1.3,5.1-5,10.47-4.12,15.07,2.14,11.59,8.18,21.6,18,29.48,1.14-3.84,2.15-7.21,3.34-11.23,2.11,3.22,3.79,5.81,5.49,8.41L301.37,426l.24.76,8.32,1,0,1.74-10.11,1.24c4.35,3.11,9.28-1.7,14.44,2.76l-14.77,2.3c7.74,2.31,17.71-3.67,22.2,7.71l-26.19,2.27.16,1.31c8.88-.17,17.77-.42,26.66-.44,1.81,0,3.64.85,5.46,1.32l-.33,2-32.56-.93c-.24.7-.47,1.4-.71,2.11,1.21.56,2.44,1.63,3.63,1.6,9.82-.2,19.64-.71,29.46-.88,2.07,0,4.17.9,6.25,1.39-.11.5-.22,1-.34,1.5q-18.2.56-36.39,1.1c-2.26.06-4.67-.17-3.22,3.45,5.19-.25,10.31-.57,15.44-.72,5.33-.15,10.67,0,16-.23,4.85-.2,9.75-1.42,14.33,1.27-15.44,2.88-31.26.73-46.58,4.23a31.91,31.91,0,0,0,9.89.7c11.95-.77,23.89-1.71,35.84-2.38,1.93-.11,3.91.82,5.87,1.27l-.31,1.41-50.78,3.35c19,.78,38.06-1.12,57,.45v2.16L292.19,472c18.95,1.08,37.87,1,56.8,1.05a47.9,47.9,0,0,1,7.15,1.08l-.24,2.49c-6.39-.18-12.78-.48-19.18-.53q-20-.14-40,0c-2.05,0-5.25-.83-5.06,3.23a7.89,7.89,0,0,0,1.64.39c21.49.21,43,.38,64.47.64a31.64,31.64,0,0,1,5.37,1l-.33,2.71-70.37-2-.08,2.69,26.85.77c14.82.41,29.65.79,44.47,1.27a31.35,31.35,0,0,1,5.1,1l-.24,1.64-74.47-2.13,0,1.73c24.77.71,49.54,1.39,74.3,2.18,1.66.05,3.29.85,4.94,1.3l-.33,1.26c-26.73,2.47-53.32-1.78-80-2.28.44.91.95,1.38,1.49,1.43,26.35,2.26,52.63,6,79.2,3.73,1.34-.11,2.77.74,4.15,1.14l-.36,1.29c-27.84,3.43-55.53-1.36-83.33-1.93a257.42,257.42,0,0,0,30.09,3.47c18.45,1.06,36.93,1.73,55.39,2.7,1.4.07,2.76,1.18,4.13,1.81l-.52,2L295,501.5l-.39,1.67c2,.57,3.89,1.54,5.88,1.65,27.6,1.54,55.2,2.95,82.8,4.43a14.34,14.34,0,0,1,3.07.85c-.09.59-.19,1.19-.28,1.79-29.69,1.43-59.19-3.74-89-3.14a20,20,0,0,0,8.05,2.26c26.76,1.59,53.53,3,80.3,4.63,1.28.08,2.52,1,3.77,1.46-.14.72-.28,1.43-.43,2.14l-88.36-5.5-.22,1.47a24.44,24.44,0,0,0,3.9.9Q346,519.05,387.87,522a15.24,15.24,0,0,1,3.81,1.35c-.14.7-.27,1.4-.41,2.1l-86.77-6c.42,1.23,1,1.61,1.54,1.7,27.82,4.4,55.7,8,84,7.06,1.34,0,2.7.76,4.05,1.17l-.43,1.26c-28.89,2.24-57.38-2.17-86-5.59a4.31,4.31,0,0,0,2.55,2.15c10.89,1.4,21.76,3,32.69,3.94,16.75,1.44,33.54,2.38,50.31,3.63,1.28.1,2.5,1,3.75,1.46l-.42,1.57c-28.36-.28-56.48-4.22-84.81-6.67a6.45,6.45,0,0,0,3.75,2.14c11.88,1.46,23.76,3,35.67,4.15C366,538.77,381,539.73,395.89,541c1.18.1,2.28,1.17,3.42,1.79l-.58,1.88-82.87-7.8a2.5,2.5,0,0,0,1.81,1.65c11.85,1.7,23.67,3.71,35.57,4.9,14.74,1.48,29.54,2.24,44.31,3.41,1.25.1,2.43,1,3.65,1.55l-.54,2.34-82-8.23a330.08,330.08,0,0,0,37.11,6c14.56,1.61,29.16,2.78,43.74,4.24,1.13.11,2.18.94,3.26,1.44l-.5,2-82.45-8.81a8,8,0,0,0,4.27,2.19c13.95,2.14,27.88,4.48,41.88,6.18,11.57,1.41,23.23,2,34.84,3.09,1.17.11,2.27,1,3.4,1.56l-.52,1.44c-28.08-2.69-56.42-3-84.31-9.31.92,1.52,2.05,2.71,3.34,2.9,11.83,1.83,23.64,3.87,35.53,5.09,14.41,1.48,28.89,2.21,43.33,3.37,1.19.09,2.31,1,3.47,1.45l-.48,1.55c-28.52-1.21-56.93-3.6-85.08-8.91l-.24,2,86.4,11c-.08.6-.15,1.2-.22,1.8C376.22,572.09,347.49,566,318.38,563.69ZM90.06,291.08c-9.34-9-18.62-18.06-28-26.95-2.52-2.37-5.12-6.48-9.23-3.37s-1.42,7.22,0,10.86a5.57,5.57,0,0,0,.75,1.29c5,6.67,9.63,13.64,15.09,19.9,5,5.7,8,12,10.34,19.13A116.3,116.3,0,0,0,87.9,333c3.94,6.95,9.87,12.56,18.52,12.8,4,.1,5.57,1.62,6.92,4.89,5.44,13.23,11.26,26.31,16.57,39.59,19,47.57,37.73,95.28,57,142.76a265,265,0,0,0,30.32,55.6c8.19,11.35,22.47,16,34.22,2.66a75.84,75.84,0,0,0,8.9-12.63c11.78-20.5,23.36-41.11,34.93-61.73a4.58,4.58,0,0,0,.36-3.57c-10.68-24.36-8.55-48.94-1.49-73.63.8-2.8,1.51-5.62,2.27-8.44l-1.27.95-24.81-16.71c-5.83,16.72-11.47,33.58-17.6,50.25-4.65,12.63-9.77,25.1-15,37.5-2.44,5.76-5.8,5.85-9.51.8a39.18,39.18,0,0,1-2.46-3.76c-13.39-23.59-27.29-46.92-40-70.88C172,403.58,159.44,377.1,146.3,350.92c-2.52-5-5.39-9.85-8.16-14.86,1-.61,1.57-1.16,2.17-1.25,11.38-1.63,17-8.56,20-19.38,3.36-12.16,8-24,12.26-35.88,1.85-5.17.89-7.84-4.39-8.3a8.24,8.24,0,0,0-6.25,3.1c-3.92,5.71-7,12-10.82,17.78-1.93,3-4.15,7-7,7.83-9.33,2.66-15.7,8.34-20.64,16.24a11.06,11.06,0,0,1-2.44,2.14l-1.09-1.18a35.66,35.66,0,0,1,20.19-19.66c-6.87-22.65-13.63-44.93-20.4-67.2-1.27-4.17-4.81-4.44-8.13-4-3.86.52-5.28,3.85-4.77,7.11,2.44,15.72,5.22,31.39,8,47.52l11.78-4,.54,1.59L83,296.84l-.69-1.15ZM514.81,834.59c8,.23,14.53.25,21,.67,4.05.26,6.8-1.28,9.63-4.08a18.44,18.44,0,0,1,8.3-4.7c7.6-1.8,10.61-4.35,12.06-12,1.17-6.21,2.35-12.41,3.35-18.65,1.53-9.55,2.64-19-.79-28.58-3.13-8.74-5.45-17.77-8-26.71q-44.88-156.26-89.79-312.52c-5.52-19.14-11.63-38.14-18.14-57-1.52-4.4-5.2-8.56-8.9-11.59-6.17-5.07-10.26-3.54-11.65,4.07-4.11,22.55-7.88,45.17-11.65,67.78a11.27,11.27,0,0,0,.9,5.27c4.69,13.34,9.55,26.61,14.22,39.95q29,82.89,57.9,165.82c12.36,35.67,24.33,71.46,36.55,107.17,1.49,4.34,1.67,8.43-.71,12.46-5.47,9.3-10.86,18.65-16.5,27.85-1.77,2.9-3.53,5.74-.7,8.52s6.48,3.17,10,.69a49.05,49.05,0,0,1,5.7-4c1.75-.9,3.84-1.16,5.77-1.71.35,2,1.37,4.23.94,6.09-2.76,12-3.82,25-16.4,32.05C517.09,831.9,516.56,832.78,514.81,834.59ZM494,653.49a14.27,14.27,0,0,0-2.05.83c-23.57,16.55-47.27,32.92-70.62,49.78-8.2,5.92-15.71,12.85-23.17,19.72-5.83,5.35-6.44,12.13-3.33,19.26,1.47,3.35,3.22,6.58,4.62,10,11.3,27.19,22.38,54.48,33.87,81.58a327.45,327.45,0,0,0,14.39,29.62c5.23,9.51,10.41,10.44,19.62,4.61a57.22,57.22,0,0,0,6.42-4.75c14.1-12,27.57-24.76,42.41-35.71,10.82-8,11.8-19.14,14.35-30.41a44.64,44.64,0,0,0-6.26,3.95c-5,3.45-11.28,3.36-14.74-.14s-3-8.58.73-14c4.31-6.31,8.51-12.7,12.42-19.26,4.29-7.19,6.79-14.62,2.63-23-2-4.12-2.85-8.81-4.34-13.2C512.07,706.12,503.12,680,494,653.49Zm80,124.76c7.53-7.72,14.31-15,21.48-21.92,6.59-6.32,8.33-13.29,4.48-21.61-.42-.9-.71-1.87-1.05-2.8Q583,688.63,567.17,645.35c-2.51-6.86-4.61-13.88-7.17-20.72-3.12-8.35-8.48-10.13-16-5.53a94.71,94.71,0,0,0-10,6.59,5.86,5.86,0,0,0-1.84,4.75c1.36,6.32,3.1,12.57,4.91,18.78Q554,707.35,571,765.45C572.13,769.4,572.89,773.46,574,778.25ZM315.33,608.31c-1.95,11.78-3.83,22.71-5.42,33.69-.14,1,1.51,3.07,2.53,3.21,16.47,2.32,32.92,5,49.47,6.4a465,465,0,0,0,78.36-.6c2.89-.25,5.74-1,8.82-1.57-2-12.14-3.92-23.55-5.83-35C400.52,615,357.86,623.17,315.33,608.31Zm190.3,658c.87,5.3,1.36,10.07,2.47,14.7,5.21,21.84,10.68,43.62,15.85,65.47,2.66,11.22,2.47,11.27,14.11,10.06,1-.11,2-.18,3-.32,13-1.86,13-1.86,14.16-14.91.48-5.55.9-10.93,8.72-11.1-3.87-22.72-7.65-44.93-11.54-67.78ZM250.87,1282l-44.72-12.53c-3.17,22.14-6.27,43.75-9.43,65.83,6.94-.37,8.36,3.8,8.79,8.88.24,2.81.69,5.6.9,8.42.35,4.76,2.77,7.11,7.59,7.47a147.41,147.41,0,0,1,15.83,1.93c3.44.63,4.73-.36,5.36-3.73,2.09-11.41,4.39-22.78,6.74-34.13C244.82,1310.14,247.84,1296.22,250.87,1282Zm42-26.83L211,1236.5c-1.41,9.16-2.59,17.37-4,25.55-.53,3.14.7,4.47,3.62,5.26,12.67,3.43,25.21,7.35,38,10.45,12.21,3,24.61,5.16,37.37,7.78C288.43,1274.78,290.68,1264.8,292.86,1255.12Zm182.43,10.12c2.07.06,3.57.24,5,.12q18.63-1.5,37.27-3.09c10.43-.9,20.85-1.86,31.28-2.79,5.12-.46,6.06-1.65,5.34-6.78-.25-1.81-.54-3.61-.84-5.41-1.17-6.94-2.34-13.87-3.44-20.35l-80.32,12.78C471.57,1248.49,473.39,1256.7,475.29,1265.24Zm-363-983.3c-1.63-1.88-3.34-3.22-4.22-5-5.91-11.7-11.53-23.55-17.49-35.23a22.5,22.5,0,0,0-5.69-7.32c-4.16-3.29-7.75-1.34-8,4a10.37,10.37,0,0,0,.36,3.94c5.64,15.54,11.37,31,17.14,46.74,6.25-2.4,11.35-4.35,16.45-6.32A12.14,12.14,0,0,0,112.25,281.94Zm312.58-62.29c2-4.51,3.8-7.81,4.87-11.35,2.84-9.35-2.21-21.24-10.63-25.83-4.64-2.53-8.57-.94-12.51,1.77-3.78,2.6-3.52,5.63-2.11,9.5,1.52,4.18,2.23,8.65,3.29,13C417.86,204.26,422.29,207.29,424.83,219.65ZM314.68,595c.62,1.63.81,3.09,1.27,3.19a520.07,520.07,0,0,0,132.6,10,6.62,6.62,0,0,0-4.31-2c-20.95-1-41.91-1.74-62.85-3-12.27-.76-24.5-2.27-36.72-3.76C335,598.27,325.35,596.62,314.68,595Zm-1,8.37c32.52,13.52,65.27,10.87,98,9.05-1-.12-2-.1-2.94-.18-17.41-1.47-34.85-2.61-52.21-4.55-12.86-1.44-25.59-4-38.41-5.83C316.68,601.69,315.12,602.86,313.65,603.4Zm130.89-.95c-43.09-3.26-86.29-5.24-129.16-13.45.15,1,.13,2.13.36,2.18,4.95,1.19,9.88,2.57,14.9,3.32A758.74,758.74,0,0,0,444.54,602.45ZM409.4,210.52c1.65,8.78,3.25,17.67,5.09,26.52.18.86,1.84,1.41,2.82,2.1l1.11-.61c-2.86-6-1.35-11.11,1.74-16.48,2.3-4,.82-8.45-2.7-11.71C414.92,208,412.23,207.75,409.4,210.52Zm15,617.27h-1.68c-.25,1.6-1.15,3.44-.65,4.74,2.06,5.26,4.41,10.42,7,15.45.57,1.12,2.49,1.54,3.78,2.28.18-1.46.92-3.15.45-4.36-2-5.09-4.39-10.06-6.72-15A20.61,20.61,0,0,0,424.39,827.79ZM579.75,1430.7c-.12-6.16-.22-11.59-.36-19-2.58,1.87-5.19,2.79-5.35,4-.63,4.87-.48,9.84-.64,15.19Zm-22.22-.49c4,1.4,5.91.55,5.55-3.6a62.58,62.58,0,0,1-.33-9c.27-4.59-1.76-5.45-6.18-4.06C556.89,1419.1,557.2,1424.51,557.53,1430.21Zm62.09-16c-.43-.42-.87-.83-1.31-1.24-1.27.82-3.49,1.49-3.64,2.47a77.65,77.65,0,0,0-.79,12.75c0,.78,1.92,1.93,3.07,2.12.62.1,2.11-1.45,2.18-2.34C619.47,1423.43,619.49,1418.83,619.62,1414.24Zm-438.23,4.47c-3.73-1-5.23,0-4.83,3.53.37,3.29.5,6.61.75,9.92.29,3.65,1.85,5.12,5.79,3C182.53,1429.67,182,1424.12,181.39,1418.71Zm-12.83.54c.29,4.86.47,9.61.89,14.33.32,3.65,2.54,3.56,5.35,2.4-.35-4.71-.79-9.3-1-13.89C173.65,1418.87,172.09,1418.13,168.56,1419.25Zm442.69-5.63c-2.35.18-5.32-1.74-5.53,2.62-.23,4.6-.29,9.2-.43,14.28l5.49-.3ZM379.51,346.36c1.5,7.48,2.84,14.22,4.19,21l.9-.12c.72-6.39,1.45-12.78,2.2-19.47ZM139.6,1419.76c.48,4.27,1.24,8.37,1.33,12.48s1.9,4.82,5.44,3.46c-.43-4.32-.83-8.59-1.3-12.85C144.74,1419.9,143.52,1418.12,139.6,1419.76Zm457.88-5.87c.21,5,.32,9.79.69,14.57.07.82,1.23,1.56,1.89,2.33.76-.84,2.1-1.64,2.18-2.54.33-3.81.19-7.65.4-11.47C602.82,1413.31,601.08,1412.86,597.48,1413.89Zm-26.52,0c-3.86-1.23-5.44-.36-5.25,3.17.2,3.78,0,7.59.38,11.37.07.89,1.44,1.68,2.22,2.51.74-.86,2.07-1.68,2.14-2.59C570.8,1423.63,570.82,1418.86,571,1413.91ZM191.42,1419c.23,4.62.58,9.35.67,14.09.07,3.71,1.82,3.55,3.73,2.69.15-5,.24-9.42.41-13.87C196.35,1418.74,195,1417.71,191.42,1419ZM152,1436.32l1.73-.8c-.33-4.26-.77-8.52-1-12.79-.18-3.86-1.89-4.45-5.77-2.5C150.32,1425.05,145.56,1432.59,152,1436.32Zm429.72-15.69.72.35a61.1,61.1,0,0,0,.54,7.91c.16.86,1.78,1.44,2.73,2.16.57-.83,1.59-1.63,1.65-2.49a33.44,33.44,0,0,0-.13-7.94c-.44-2.49-1.62-4.86-2.48-7.28Zm9.06,9.76,1.66,1.16c.88-1.28,2.45-2.52,2.53-3.85a58.94,58.94,0,0,0-.5-10.94c-.15-1.18-1.58-2.2-2.43-3.29-.76,1.19-2.16,2.38-2.15,3.55C589.94,1421.48,590.45,1425.93,590.78,1430.39Zm-36.32.21c-.3-5.48-.51-10.43-.91-15.36,0-.72-1-1.36-1.57-2-.72.7-2,1.37-2.06,2.12-.32,4.94-.37,9.91-.52,15.14Zm79.85-.78c-.09-4.57-.06-9-.36-13.43-.06-.89-1.37-1.69-2.11-2.54-.68.91-1.87,1.77-2,2.73-.32,3.44-.16,6.92-.4,10.37S630.68,1431.07,634.31,1429.82Zm-426.33,6,1.86-.55q.21-7.12.41-14.25c.1-3.61-1.84-3.56-5.15-2.35C207.65,1424.11,204,1430.73,208,1435.8Zm324.44-22.29c-3-1.07-4.75-.65-4.52,2.85.23,3.32.18,6.67.67,9.94.24,1.64,1.4,3.14,2.15,4.7l1.21-.45ZM202.62,1418c-4,1-4.67,5.62-3,17.88l4-.52C203.27,1429.22,203,1423.64,202.62,1418Zm-72.72,18.82,1.25-1.1c-.11-4.45-.1-8.9-.43-13.34-.06-.94-1.33-1.79-2.05-2.69-.74,1-2.11,2-2.12,3a74.4,74.4,0,0,0,.72,11.36C127.41,1435,129,1435.84,129.9,1436.77ZM535.62,1422h0a53.47,53.47,0,0,0-.1,6.45c.07.85,1.11,1.6,1.7,2.4.73-.7,2-1.36,2.09-2.1.26-4.47.3-9,.21-13.42,0-.67-1.08-1.32-1.66-2-.68.73-1.82,1.38-2,2.2A51.15,51.15,0,0,0,535.62,1422Zm10.92.3h0a53.64,53.64,0,0,0,.11-6.46c-.08-.85-1.09-1.62-1.68-2.43-.78.82-2.15,1.6-2.22,2.47-.3,4.13-.34,8.29-.24,12.43,0,.85,1.07,1.67,1.64,2.5.73-.85,1.91-1.61,2.1-2.56A37.91,37.91,0,0,0,546.54,1422.27Zm-444.45-2.94-1.77,1c-.13,4.61-.38,9.22-.29,13.83,0,.82,1.42,1.62,2.18,2.44.58-.82,1.59-1.59,1.67-2.45a90.63,90.63,0,0,0,.44-11.41C104.28,1421.6,102.87,1420.48,102.09,1419.33Zm524.5,2.67h0a40.83,40.83,0,0,0,.08-6c-.1-.85-1.19-1.58-1.82-2.37-.79.81-2.2,1.56-2.27,2.42a112.71,112.71,0,0,0-.21,11.91c0,.82,1.13,1.61,1.74,2.41.79-.82,2.06-1.54,2.25-2.48A33.43,33.43,0,0,0,626.59,1422ZM189.3,1435.67c-.28-5-.42-9.93-.94-14.84-.11-1.06-1.59-2-3.25-3.88C184.13,1428.56,185.73,1435.39,189.3,1435.67Zm-29.68.95,1-1c-.44-4.59-.79-9.2-1.41-13.76-.14-1-1.29-1.81-2-2.71-.57.84-1.64,1.69-1.61,2.5a88.71,88.71,0,0,0,1,11.87C156.84,1434.7,158.59,1435.6,159.62,1436.62Zm57.09-9.52h-.08a44.6,44.6,0,0,0,.08-6.43c-.11-1-1.27-1.77-2-2.65-.57.79-1.62,1.57-1.64,2.38q-.2,6.43.1,12.88c0,.84,1,1.63,1.61,2.44.69-.89,1.83-1.72,2-2.69A35.65,35.65,0,0,0,216.71,1427.1Zm-105.58,2H111a46.14,46.14,0,0,0,.09-6c-.09-.86-1.09-1.62-1.68-2.43-.63.62-1.76,1.2-1.81,1.87-.31,4.14-.45,8.31-.43,12.46,0,.58,1.18,1.6,1.83,1.61a2.48,2.48,0,0,0,1.88-1.55A49.24,49.24,0,0,0,111.13,1429.13Zm536.21-4.3c-.15-2.82-.16-5.67-.56-8.46-.1-.76-1.38-1.34-2.12-2-.53.71-1.5,1.42-1.51,2.14,0,3.82.08,7.66.4,11.47.07.81,1.22,1.53,1.87,2.3a5.37,5.37,0,0,0,1.92-5.44Zm-480.62,11.76c-.4-5.56-.71-10.76-1.21-15.95-.07-.67-1.09-1.32-1.79-1.8-.13-.09-1.29.75-1.26,1.08q.84,8,2,16C164.46,1436.19,165.55,1436.28,166.72,1436.59ZM133.8,1419.9c.15,5,.25,10,.53,15,0,.49,1.1,1.12,1.79,1.29a2.05,2.05,0,0,0,1.67-.7C138.91,1434.07,136.61,1421.5,133.8,1419.9Zm-15.92,14.17c-.21-4.63-.26-7.78-.56-10.91-.1-.94-.9-1.82-1.37-2.72-.62,1-1.69,1.87-1.76,2.86a63.29,63.29,0,0,0,0,9.44c.09,1.35,1,2.64,1.58,4Zm107.4.65,1,1c.57-.81,1.65-1.63,1.65-2.44,0-5.2,1.08-10.56-.28-15.62l-1.9.15Zm411.62-20.49c.17,5.28.33,10.56.53,16.8C641.37,1427.34,641.28,1417.17,636.9,1414.23Zm-512.58,22c-.39-5.73-.74-10.9-1.08-16.07C119,1424.86,120.14,1435.24,124.32,1436.28Zm535-6c-.26-5.33-.52-10.67-.84-17.15C655,1417.13,655.26,1426.42,659.35,1430.23Zm-437.54-12-1.76,0A58.46,58.46,0,0,0,220,1435l1.33,0Zm430.72,13.38c1.63-6.58-.11-11.82-.61-17.1C649.26,1417.64,649.48,1427,652.53,1431.64ZM297,440.48l.27,2,17.85-1.44-.17-1.8Zm-65.73,993.31,1,0,.46-16.16-1-.07ZM435.1,497.71c-2.32-5.63-6-3.19-9.33-3.82C427.17,499.65,431.09,497.07,435.1,497.71Zm-76.18-53.32c12.59,1.07,15.35.54,15.85-2.83Zm64.43,38.11c1.65,3.62,5.13,4.12,9.8,1Zm240.1,931.71-1.67.1q.47,7.44.94,14.9l1.58-.09Q663.87,1421.67,663.45,1414.21ZM422.63,476.43c1.19,4,5.5,4.82,10.83,1.9Zm-1.72-3.36,9.67,1.63C429.32,469.86,426.65,469.34,420.91,473.07ZM319.84,394.43c-.16-.71-.31-1.41-.46-2.11l-9.77,1.84.53,2.31ZM307.62,408l.23,1.36,10.5-.39-.22-2.2Z"/><path class="cls-1" d="M559.35,68.15c-1-7.8-1.92-15-2.68-22.21-1.07-10.15-1.82-20.34-3-30.48-.52-4.36,1-6.6,5.19-7.32,11.62-2,23.22-4,34.84-5.93Q601.28,1,609,.13c5.85-.62,7.78,1,8.07,6.53.68,12.79,1.23,25.58,1.9,38.37.47,9.12.9,18.25,1.64,27.35.36,4.46-1.17,7.37-5.63,7.71a95.57,95.57,0,0,1-17.16.2c-4.16-.44-6.31-3.9-6.73-8.2-.45-4.56,1.23-8.26,5.55-9.47,6.28-1.77,12.81-2.66,19.56-4C615.6,46.7,615,34,614.38,20.42c-11.87,2-23.28,3.89-34.67,5.89-5.24.91-10.4,2.56-15.65,2.92s-6,2.65-5.38,7.34c1.57,11.17,2.73,22.41,3.87,33.64.52,5.07.35,10.36-4.53,13.4-6.58,4.09-13.63,7.55-21.6,3.88-5.83-2.69-6-10.47-.54-15S550.26,66.18,559.35,68.15Z"/><path class="cls-1" d="M495.67,117c-5-18.24-10-36.35-14.93-54.46l1.92-.69a26.49,26.49,0,0,1,2.1,4.28c3.31,11.67,6.35,23.41,9.82,35,2.14,7.14,4.75,14.15,7.43,21.11,2,5.28,1.56,9.26-3.33,12a79.41,79.41,0,0,1-17.35,7.33c-2.61.72-7.4-.48-8.68-2.45-1.5-2.31-1.29-6.88,0-9.62,3-6.35,8.76-9.82,15.55-11.38C490.6,117.63,493.09,117.42,495.67,117Z"/><path class="cls-1" d="M168.44,1363.13c.88,4.54,1.62,8.43,2.38,12.31,1.68,8.6,1,9.71-8.85,12.37l-6.05-20Z"/><path class="cls-1" d="M134.05,1392.33,130,1376.62l10.22-3.4c1,5.14,2.68,9.84,2.32,14.38-.18,2.17-4.29,4-6.62,6Z"/><path class="cls-1" d="M619.6,1381.93c-9-3.66-9.21-4.45-4.62-16.11,6.91.43,7.27.88,6.13,7.52C620.64,1376.09,620.14,1378.83,619.6,1381.93Z"/><path class="cls-1" d="M590.94,1357.32c5.8.28,7.58,3,6.11,8.24a63,63,0,0,0-1.22,7.33C587,1371,586.13,1368.05,590.94,1357.32Z"/><path class="cls-1" d="M358.7,659.69c3,.09,4.22,3,4.3,6.25.09,3.74-2.3,5.73-6,5.82-3.27.07-6-3.42-6-7.23C351.07,660,354.26,659.81,358.7,659.69Zm-1.94,1.68c-1.25,1.73-2.67,3-2.44,3.49a18.17,18.17,0,0,0,3.06,3.8c.86-1,2.48-2.1,2.39-3C359.66,664.41,358.21,663.3,356.76,661.37Z"/><path class="cls-1" d="M301.64,189.78c-.23,7.94-.44,15.88-.69,23.81-.11,3.66-.43,7.32-.42,11,0,6.92,2.14,9.09,9.18,9.59,2.12.15,4.24.13,6.31.19.06.88.22,1.4.08,1.5-5.89,4.37-18.3-.22-18.38-7.31-.14-12.29.73-24.59,1.27-36.88,0-.76.91-1.48,1.4-2.21Z"/><path class="cls-1" d="M363.69,202c-5.61-4.17-11.74-7.54-18.52-5.45-6.3,1.94-12.17,5.27-18.2,8,.88-4.52,10.9-10.64,18.55-11.26C355.48,192.39,361.55,195,363.69,202Z"/><path class="cls-1" d="M291.52,206.48c-10.54-10.69-21.38-11.35-32.75-.8.49-6.1,6-9.67,14.32-10.43C281.76,194.45,290,199,291.52,206.48Z"/><path class="cls-1" d="M321.8,256c14.93.78,22.23-7.94,26-22.12,2.08,6.45-.57,13.16-5.86,18.11C335.36,258.21,329.32,259.7,321.8,256Z"/><path class="cls-1" d="M324.29,584.33c11.44-1.19,22.24,2.48,33.11,5.62l-33.35-4.32Z"/><path class="cls-1" d="M392.6,591.72l-21.17-2.3c0-.43.06-.87.1-1.31l21.14,1.65C392.64,590.41,392.62,591.06,392.6,591.72Z"/><path class="cls-1" d="M352.46,620.26a9,9,0,0,1,4.28,11.68c-1.6,3.94-4.82,5.22-9.86,3.73,2.46-1.88,6-3.26,6.8-5.57C354.58,627.41,353,623.91,352.46,620.26Z"/><path class="cls-1" d="M664.08,1425.27c.07,1.28.14,2.57.22,3.85l-1.58.09c-.09-1.36-.17-2.71-.26-4.07l-3.37-.26c.09,1.81.18,3.58.26,5.35a10.76,10.76,0,0,1-2.88-5.55l-3.3-.24a24,24,0,0,1-.64,7.2,17.35,17.35,0,0,1-2.32-7.41l-2.91-.2,0,.81a10.05,10.05,0,0,1-.15,3,10.42,10.42,0,0,1-1.76,2.46c-.65-.77-1.8-1.49-1.87-2.3-.11-1.4-.2-2.81-.26-4.22l-3-.2c-.15,3-1.1,5.85-2.84,7.48-.09-2.72-.17-5.24-.24-7.67l-3-.19c0,2.19.06,4.4.1,6.65-3.63,1.25-5.06.49-4.83-2.87.1-1.35.13-2.71.15-4.06l-3-.18a26.7,26.7,0,0,1-.27,5.23c-.19.94-1.46,1.66-2.25,2.48-.61-.8-1.71-1.59-1.74-2.41q-.09-2.77-.06-5.55l-2.86-.17c-.06,1.91-.14,3.81-.28,5.71-.07.89-1.56,2.44-2.18,2.34-1.15-.19-3.06-1.34-3.07-2.12,0-2.07,0-4.15.13-6.22l-3-.16c-.08,2.78-.16,5.52-.24,8.38l-5.49.3c.09-3.14.15-6.08.23-9l-3-.16c0,2.29-.07,4.58-.27,6.85-.08.9-1.42,1.7-2.18,2.54-.66-.77-1.82-1.51-1.89-2.33-.19-2.41-.31-4.84-.41-7.29l-2.87-.13a54.85,54.85,0,0,1,.08,6.66c-.08,1.33-1.65,2.57-2.53,3.85l-1.66-1.16c-.24-3.19-.56-6.38-.75-9.58l-2.8-.12a33.38,33.38,0,0,1,.13,7.87c-.06.86-1.08,1.66-1.65,2.49-1-.72-2.57-1.3-2.73-2.16a61.1,61.1,0,0,1-.54-7.91l-.72-.35.07-.18-2.24-.1c.07,3.55.13,6.83.2,10.35l-6.35.23c.11-3.76.07-7.33.26-10.82l-2.85-.12c-.07,2.82-.16,5.61-.36,8.38-.07.91-1.4,1.73-2.14,2.59-.78-.83-2.15-1.62-2.22-2.51-.25-2.87-.22-5.76-.29-8.65l-3.1-.12c0,2.31.18,4.63.38,6.93.36,4.15-1.51,5-5.55,3.6-.21-3.66-.42-7.21-.62-10.74l-3.06-.11c.22,3.6.39,7.28.61,11.24l-5.06-.14c.11-3.86.17-7.57.32-11.24l-3-.11c-.05,1.06-.12,2.11-.15,3.16h0a37.91,37.91,0,0,1-.27,6c-.19,1-1.37,1.71-2.1,2.56-.57-.83-1.62-1.65-1.64-2.5-.08-3.1-.07-6.2.06-9.3l-3.05-.1c0,3.28-.06,6.57-.25,9.84,0,.74-1.36,1.4-2.09,2.1-.59-.8-1.63-1.55-1.7-2.4a53.47,53.47,0,0,1,.1-6.45h0c0-1.07,0-2.14,0-3.21l-3.38-.1c-.11,4-.23,8-.34,11.89l-1.21.45c-.75-1.56-1.91-3.06-2.15-4.7a74.37,74.37,0,0,1-.55-7.77c-47.45-1.37-100.3-2.14-156-2.14-49.25,0-96.27.6-139.29,1.69l-.45,15.76-1,0,.45-15.69-3.93.1c1.13,4.89.1,10,.14,15,0,.81-1.08,1.63-1.65,2.44l-1-1q.22-8.23.47-16.46l-3.94.11-.48,16.64-1.33,0a58.22,58.22,0,0,1,0-16.57l-4.79.13c.65.69,1.39,1.37,1.48,2.12a44.6,44.6,0,0,1-.08,6.43h.08a35.65,35.65,0,0,1,.07,5.93c-.13,1-1.27,1.8-2,2.69-.56-.81-1.57-1.6-1.61-2.44q-.3-6.43-.1-12.88c0-.62.63-1.22,1.17-1.82l-4.46.13a4.12,4.12,0,0,1,.43,2.29q-.19,7.13-.41,14.25l-1.86.55c-3.95-5-.43-11.52-2.8-16.94l-2.51.08c.32,5.35.62,10.63,1,16.37l-4,.52c-1.34-9.84-1.18-14.75,1-16.83l-5,.17a4.09,4.09,0,0,1,.61,2.74c-.17,4.45-.26,8.9-.41,13.87-1.91.86-3.66,1-3.73-2.69-.09-4.63-.42-9.25-.65-13.78l-3.9.14a2.58,2.58,0,0,1,.82,1.38c.52,4.91.66,9.86.94,14.84-3.29-.26-4.91-6.11-4.37-16.12l-3.44.12c.53,5.11,1.07,10.32,1.61,15.51-3.94,2.1-5.5.63-5.79-3-.25-3.31-.38-6.63-.75-9.92a5.71,5.71,0,0,1,.13-2.38l-3.35.13a5.25,5.25,0,0,1,.45,2.1c.22,4.59.66,9.18,1,13.89-2.81,1.16-5,1.25-5.35-2.4-.39-4.42-.58-8.86-.84-13.4l-3.21.13a1.07,1.07,0,0,1,.11.33c.5,5.19.81,10.39,1.21,15.95-1.17-.31-2.26-.4-2.29-.64q-1.1-7.74-1.91-15.52l-4,.18a2.62,2.62,0,0,1,.68,1.26c.62,4.56,1,9.17,1.41,13.76l-1,1c-1-1-2.78-1.92-3-3.09a88.71,88.71,0,0,1-1-11.87,1.63,1.63,0,0,1,.36-.94l-3.47.16a8.12,8.12,0,0,1,.28,1.85c.19,4.27.63,8.53,1,12.79l-1.73.8c-6.06-3.51-2.21-10.39-4.49-15.21l-2.76.13a9,9,0,0,1,.32,1.61c.47,4.26.87,8.53,1.3,12.85-3.54,1.36-5.34.74-5.44-3.46a103.2,103.2,0,0,0-1.12-10.75l-4.55.23c2.07,4,3.45,12.62,2.53,13.81a2.05,2.05,0,0,1-1.67.7c-.69-.17-1.77-.8-1.79-1.29-.24-4.38-.35-8.76-.47-13.15l-3.22.17a1.3,1.3,0,0,1,.08.37c.33,4.44.32,8.89.43,13.34l-1.25,1.1c-.92-.93-2.49-1.75-2.63-2.79a74.4,74.4,0,0,1-.72-11.36,1.38,1.38,0,0,1,.09-.44l-3.26.18c.3,4.46.61,9,.94,13.92-3.6-.9-5-8.7-2.55-13.83l-4.55.27a3.13,3.13,0,0,1,.1.44c.3,3.13.35,6.28.56,10.91-.22.28-1.19,1.46-2.15,2.63-.56-1.32-1.49-2.61-1.58-4a63.29,63.29,0,0,1,0-9.44,1.51,1.51,0,0,1,.09-.41l-3.22.2s0,0,0,.05a46.14,46.14,0,0,1-.09,6h.14a49.24,49.24,0,0,1-.26,6,2.48,2.48,0,0,1-1.88,1.55c-.65,0-1.83-1-1.83-1.61,0-3.91.11-7.83.38-11.73l-3.21.21a95.2,95.2,0,0,1-.45,10.67c-.08.86-1.09,1.63-1.67,2.45-.76-.82-2.16-1.62-2.18-2.44-.07-3.47.06-6.94.18-10.41C38.05,1428,0,1433.56,0,1439.72c0,12.88,166.55,23.33,372,23.33s372-10.45,372-23.33C744,1434.26,714.12,1429.24,664.08,1425.27Z"/></svg>